<?xml version="1.0" standalone="no"?>
<!DOCTYPE svg PUBLIC "-//W3C//DTD SVG 1.1//EN" "http://www.w3.org/Graphics/SVG/1.1/DTD/svg11.dtd" >
<svg xmlns="http://www.w3.org/2000/svg">
<metadata></metadata>
<defs>
<font id="kievitbold" horiz-adv-x="831" >
<font-face units-per-em="2048" ascent="1556" descent="-492" />
<missing-glyph horiz-adv-x="397" />
<glyph horiz-adv-x="0" />
<glyph unicode="&#xd;" horiz-adv-x="397" />
<glyph unicode=" "  horiz-adv-x="397" />
<glyph unicode="&#x09;" horiz-adv-x="397" />
<glyph unicode="&#xa0;" horiz-adv-x="397" />
<glyph unicode="!" horiz-adv-x="622" d="M137 150q0 67 49 116t125 49q74 0 123 -49t49 -116q0 -72 -49 -121t-123 -49v-3q-76 0 -125 52q-49 49 -49 121zM152 1364h319l-51 -903h-219z" />
<glyph unicode="&#x22;" horiz-adv-x="788" d="M74 1364h270l-29 -500h-184zM444 1364h271l-58 -500h-182z" />
<glyph unicode="#" horiz-adv-x="1077" d="M49 436l33 197h180l25 172h-181l31 196h178l39 248h189l-39 -248h164l39 248h188l-39 -248h170l-33 -196h-166l-24 -172h168l-33 -197h-166l-37 -256h-188l37 256h-164l-39 -256h-188l38 256h-182zM444 627h174l27 182h-174z" />
<glyph unicode="$" horiz-adv-x="870" d="M49 70l92 192q41 -27 111 -57q70 -31 154 -31q90 0 135 25q41 24 41 65q0 30 -25 49q-29 22 -65 35q-51 19 -91 31q-37 11 -102 41q-49 24 -90 51q-47 31 -70 61q-33 38 -47 78q-16 46 -16 99q0 113 65 190q69 79 187 105v219h227v-209q83 -9 145 -31q54 -20 93 -43 l-97 -186q-35 25 -98 45q-59 20 -129 20q-147 0 -147 -88q0 -27 18 -45t53 -33q40 -17 74 -30l84 -31q32 -12 104 -47q48 -23 90 -62q43 -40 62 -82q22 -49 22 -108q0 -126 -71 -203q-72 -78 -203 -102v-240h-227v232l-4 -3q-95 9 -166 37q-62 25 -109 56z" />
<glyph unicode="%" horiz-adv-x="1779" d="M45 700q0 57 23 121q22 61 67 103q44 44 109 71q69 29 153 29q89 0 154 -27q65 -24 108 -67q46 -46 66 -101q23 -61 23 -118t-23 -121q-20 -56 -66 -105q-43 -46 -108 -73q-69 -29 -154 -29l-2 -2q-89 0 -153 27q-65 27 -109 71t-65 103q-23 64 -23 118zM279 707 q0 -60 28 -111q27 -49 92 -49v-2q70 0 93 45q24 46 24 106q0 62 -27 111q-27 47 -92 47t-92 -43q-26 -42 -26 -104zM477 -2l600 999h226l-598 -999h-228zM1028 287q0 57 23 121q21 58 65 102q45 45 109 72q67 28 153 28q90 0 152 -26q64 -24 108 -68q47 -47 66 -98 q22 -61 22 -121t-22 -121q-20 -56 -66 -102q-44 -47 -108 -74q-69 -29 -152 -29v-2q-86 0 -153 25t-109 67q-44 44 -65 103q-23 64 -23 123zM1262 293q0 -58 28 -109q27 -49 92 -49l2 -4q71 0 91 45q24 46 24 107q0 62 -26 110q-27 47 -93 47q-65 0 -92 -43 q-26 -42 -26 -104z" />
<glyph unicode="&#x26;" horiz-adv-x="1361" d="M59 348q0 138 74 227q72 90 209 166q-67 78 -104 154q-37 73 -37 158q0 75 30 137q28 58 84 104q53 44 129 68q74 24 164 24q85 0 162 -22q73 -25 121 -64q49 -40 76 -96q26 -53 26 -121q0 -114 -73 -196q-75 -84 -215 -166l249 -275q32 63 50 117q23 68 34 129l234 -41 q-38 -217 -166 -385l237 -266h-331l-88 98l-4 -10q-85 -60 -179 -90q-98 -31 -200 -31q-114 0 -209 29q-92 28 -150 80q-62 53 -92 123q-31 73 -31 149zM338 369q0 -87 61 -136q58 -49 160 -49q118 0 215 72l-299 330h-4q-63 -45 -98 -99q-35 -53 -35 -118zM469 1057 q0 -53 27 -99q26 -48 79 -110l-4 6q92 58 127 104q37 49 37 107q0 52 -35 90q-37 37 -96 37q-61 0 -98 -37t-37 -98z" />
<glyph unicode="'" horiz-adv-x="432" d="M78 1364h276l-45 -500h-186z" />
<glyph unicode="(" horiz-adv-x="710" d="M78 571q0 159 37 295q35 141 86 254q55 120 118 205q67 92 130 152h258q-47 -50 -111 -140q-63 -92 -109 -198q-42 -98 -81 -252q-33 -132 -33 -301q0 -163 26 -293q27 -135 74 -250q46 -113 107 -211q67 -103 129 -176h-258l-7 -4q-62 65 -129 160q-61 86 -116 206 q-50 109 -86 252q-35 140 -35 301z" />
<glyph unicode=")" horiz-adv-x="712" d="M-2 -344q53 62 119 156q62 89 108 202q49 117 78 250q31 143 31 301q0 149 -29 297q-29 129 -78 250q-52 119 -108 207q-61 95 -117 160h260q62 -65 129 -160q62 -88 119 -205q50 -108 86 -250q33 -129 33 -293q0 -161 -35 -301q-37 -147 -86 -254q-54 -114 -119 -206 q-64 -88 -127 -154h-264z" />
<glyph unicode="*" horiz-adv-x="1009" d="M88 995l72 195l246 -96l-13 270h225l-14 -270l246 96l74 -195l-269 -75l181 -211l-181 -125l-149 233l-152 -233l-178 125l178 211z" />
<glyph unicode="+" horiz-adv-x="1146" d="M84 434v209h375v369h233v-369h371v-209h-371v-381h-233v381h-375z" />
<glyph unicode="," horiz-adv-x="581" d="M104 180q0 67 50 111q49 43 118 43q79 0 142 -60q59 -59 59 -165q0 -108 -45 -215q-50 -116 -106 -191h-175l-4 2q38 59 60 111q24 58 24 110q0 44 -18 68t-43 49t-43 55q-19 32 -19 82z" />
<glyph unicode="-" horiz-adv-x="675" d="M104 467v221h467v-221h-467z" />
<glyph unicode="." horiz-adv-x="581" d="M106 154q0 71 54 125q52 49 129 49q76 0 131 -49q53 -50 53 -123q0 -72 -53 -125q-51 -51 -129 -51l-2 -3q-77 0 -129 52q-54 54 -54 125z" />
<glyph unicode="/" horiz-adv-x="921" d="M55 -184l582 1609h264l-582 -1609h-264z" />
<glyph unicode="0" horiz-adv-x="1257" d="M72 678q0 127 28 258q26 121 93 227q65 100 172 158q104 61 256 61q151 0 258 -61q105 -61 172 -160q68 -100 98 -225q31 -130 31 -258t-31 -258q-29 -122 -96 -225q-68 -100 -172 -158q-106 -62 -252 -62l-4 -2q-148 0 -256 60q-107 63 -170 162q-68 105 -97 225 q-30 126 -30 258zM360 682q0 -230 62 -363q62 -129 201 -129l-2 5q139 0 200 129q62 130 62 360q0 228 -60 360q-62 130 -200 130q-139 0 -201 -132q-62 -130 -62 -360z" />
<glyph unicode="1" horiz-adv-x="788" d="M20 1262l381 102h211v-1364h-272v1124l-262 -77z" />
<glyph unicode="2" horiz-adv-x="1056" d="M39 1206q40 37 82 68q44 33 100 57q55 24 123 39q63 14 150 14q108 0 194 -28q82 -27 141 -80q58 -55 84 -123q29 -76 29 -154q0 -107 -43 -208q-42 -98 -115 -201q-66 -93 -163 -193q-73 -75 -189 -184q33 0 51 2l49 4h50h389v-219h-922v141q66 60 201 187 q102 99 192 209q86 105 144 213q55 107 55 213q0 107 -55 153q-56 47 -135 47q-93 0 -160 -37q-72 -40 -121 -92zM45 137l4 10v-6z" />
<glyph unicode="3" horiz-adv-x="999" d="M37 1257q52 41 158 86q101 43 249 43q203 0 306 -86q104 -85 104 -225q0 -59 -23 -117q-24 -53 -63 -92q-41 -41 -92 -67q-57 -29 -105 -43v-4l2 -7q63 -6 121 -30t105 -68q46 -43 73 -102q29 -66 29 -137q0 -106 -43 -185q-44 -79 -123 -135q-84 -58 -192 -84 q-115 -31 -250 -31q-83 0 -154 11q-52 8 -80 16l43 217q23 -8 66 -16q57 -11 117 -11q148 0 233 54q86 56 86 162q0 117 -98 163t-279 49v189q155 3 246 61q92 59 92 154q0 68 -47 106q-46 37 -133 37q-77 0 -135 -24q-53 -22 -98 -60z" />
<glyph unicode="4" horiz-adv-x="1206" d="M47 283v184l645 897h256v-868h199v-213h-199v-283h-270v283h-631zM319 489l3 -2l61 9h297v510h-4z" />
<glyph unicode="5" horiz-adv-x="962" d="M47 -2l41 219l59 -12q48 -10 97 -10q72 0 133 12q60 15 110 45q48 31 74 76q25 48 25 108q0 63 -25 111q-25 46 -67 69q-44 27 -105 39q-67 13 -137 13q-53 0 -80 -2q-31 -2 -59 -7l41 705h682v-219h-435l-16 -262q221 -9 354 -115q133 -109 133 -311q0 -121 -45 -207 q-47 -88 -129 -150q-84 -62 -196 -92q-121 -31 -258 -31q-73 0 -127 7q-58 10 -70 14z" />
<glyph unicode="6" horiz-adv-x="1142" d="M76 569q0 183 59 334q58 149 170 258q108 106 270 168q163 60 359 60l57 -222l2 -2q-72 0 -129 -8q-58 -5 -123 -22q-56 -14 -110 -39q-43 -20 -92 -56q-66 -53 -105 -122q-41 -68 -59 -160q49 40 119 61q74 23 147 23q87 0 172 -29q75 -26 137 -84q57 -54 92 -135 q33 -76 33 -178q0 -104 -37 -185q-38 -83 -102 -141q-62 -56 -154 -92q-91 -31 -194 -31q-140 0 -232 51q-96 48 -159 136q-65 88 -91 190q-30 108 -30 225zM358 545q0 -180 66 -271q66 -90 170 -90q94 0 145 66q49 64 49 160q0 115 -53 174q-51 57 -147 57q-66 0 -127 -23 q-56 -21 -96 -61v-14z" />
<glyph unicode="7" horiz-adv-x="980" d="M39 1137v227h862v-150l-514 -1267l-246 84l451 1106h-553z" />
<glyph unicode="8" horiz-adv-x="1081" d="M51 346q0 60 23 117q19 51 59 100q39 45 86 78q60 45 100 66q-93 57 -159 133q-64 73 -64 194q0 81 35 146q35 69 92 114q57 48 139 76q83 25 173 25q195 0 317 -90q121 -89 121 -256q0 -54 -19 -103q-18 -46 -53 -84q-31 -34 -78 -71q-48 -38 -92 -62q56 -29 105 -61 q47 -32 88 -80q36 -45 61 -105q25 -61 25 -129q0 -87 -35 -159q-34 -69 -96 -119q-60 -48 -148 -76q-89 -25 -190 -25l-13 5q-231 0 -354 102t-123 264zM334 356q0 -76 47 -123q50 -47 145 -47l2 7q96 0 142 49q49 49 49 123q0 80 -64 135q-66 57 -149 102q-22 -13 -64 -47 q-31 -24 -55 -55q-23 -28 -39 -66q-14 -32 -14 -78zM373 1044q0 -71 49 -120q42 -42 115 -88v2q62 39 110 90q45 48 45 112q0 67 -39 109q-40 43 -116 43q-78 0 -121 -43t-43 -105z" />
<glyph unicode="9" horiz-adv-x="1140" d="M57 936q0 105 39 184q38 83 103 142q63 57 153 92q89 30 191 30q137 0 235 -49q95 -48 162 -133q64 -86 90 -190q29 -116 29 -228q0 -187 -53 -338q-56 -152 -162 -258t-264 -165q-160 -60 -363 -60l-55 215q55 0 123 10q56 8 123 25q56 17 110 45q51 26 92 64 q117 111 146 276q-49 -43 -117 -63q-73 -25 -150 -25q-88 0 -170 29q-75 26 -137 84q-57 54 -92 135q-33 76 -33 178zM156 178l4 6l2 -6h-6zM348 944q0 -116 53 -172q51 -57 148 -57q69 0 127 22q55 21 96 62v12l-2 -2q0 177 -61 268q-62 92 -166 92q-100 0 -146 -67 q-49 -64 -49 -158z" />
<glyph unicode=":" horiz-adv-x="585" d="M106 156q0 71 54 125q52 49 129 49q76 0 131 -49q53 -50 53 -123q0 -76 -53 -129q-52 -52 -129 -52l-2 -2q-77 0 -129 52q-54 54 -54 129zM109 838q0 72 53 125q52 49 129 49q76 0 131 -49q53 -50 53 -123q0 -76 -53 -129q-52 -52 -129 -52l-2 -2q-77 0 -129 52 q-53 53 -53 129z" />
<glyph unicode=";" horiz-adv-x="585" d="M109 174q0 68 49 111t118 43q80 0 142 -62q59 -59 59 -164q0 -106 -47 -215q-46 -108 -104 -186h-179q37 53 60 109q24 58 24 112q0 44 -18 68t-43 49t-43 55t-18 80zM109 838q0 72 53 125q52 49 129 49q76 0 131 -49q53 -50 53 -123q0 -76 -53 -129q-52 -52 -129 -52 l-2 -2q-77 0 -129 52q-53 53 -53 129z" />
<glyph unicode="&#x3c;" horiz-adv-x="800" d="M53 508l525 475l145 -147l-354 -322l358 -315l-145 -158z" />
<glyph unicode="=" horiz-adv-x="978" d="M80 244v209h819v-209h-819zM80 627v209h819v-209h-819z" />
<glyph unicode="&#x3e;" horiz-adv-x="800" d="M74 827l147 156l527 -465l-525 -477l-143 149l354 320z" />
<glyph unicode="?" horiz-adv-x="845" d="M31 1319q57 29 129 49q84 23 188 23q108 0 191 -27q82 -28 133 -76q55 -52 80 -112q24 -64 24 -140q0 -61 -16 -114q-17 -47 -45 -86q-27 -38 -62 -68q-47 -41 -67 -53l-60 -41q-32 -21 -47 -39q-18 -18 -28 -41q-11 -26 -11 -55v-82h-237v114q0 95 35 148q34 52 104 98 q64 43 104 86q37 43 37 115q0 77 -47 115q-45 36 -135 36q-55 0 -98 -18q-43 -15 -78 -33zM147 156q0 66 50 116t125 50q74 0 124 -50t50 -116q0 -71 -47 -121q-49 -49 -125 -49l-2 2q-76 0 -125 49q-50 50 -50 119z" />
<glyph unicode="@" horiz-adv-x="1662" d="M109 500q0 155 57 295q60 147 160 256q106 112 247 178q143 67 316 67q177 0 313 -53q137 -53 225 -141q90 -90 136 -205q47 -118 47 -242q0 -105 -31 -196q-30 -89 -86 -154q-52 -60 -133 -100q-75 -37 -170 -37q-110 0 -162 49t-61 127h-6q-41 -70 -111 -123 q-67 -49 -164 -49q-48 0 -88 18q-42 19 -68 52q-29 37 -43 80t-14 94q0 103 29 209q29 95 86 174q56 77 139 121q82 43 184 43q86 0 170 -19q74 -17 133 -37l-59 -342l-12 -78q-6 -35 -6 -55q0 -42 20 -65q19 -25 53 -25q83 0 142 80t59 221q0 120 -37 207q-38 90 -108 151 q-73 64 -172 93q-102 30 -224 30q-113 0 -219 -47t-182 -129q-78 -81 -125 -196t-47 -250q0 -248 135 -389q136 -142 404 -142q86 0 170 19q69 16 129 41l65 -160q-87 -27 -149 -41q-109 -25 -222 -25q-165 0 -301 54q-131 52 -227 145q-89 89 -143 219q-49 125 -49 277z M709 465q0 -44 14 -72q15 -31 55 -31q42 0 78 31q35 30 62 80q29 54 49 117q24 77 37 141l12 57l-4 7q-18 7 -43 10q-27 6 -54 6q-45 0 -88 -29q-35 -25 -63 -77q-28 -58 -41 -111q-14 -57 -14 -129zM1200 -129l17 6l-17 -8v2z" />
<glyph unicode="A" horiz-adv-x="1392" d="M31 0l520 1364h278l535 -1364h-315l-93 256h-544l-90 -256h-291zM492 487h382l-116 326q-32 82 -49 152q-15 60 -25 84h-4q-12 -32 -25 -88q-8 -30 -47 -148z" />
<glyph unicode="B" horiz-adv-x="1232" d="M170 0v1364h455l-4 6q95 0 180 -18q86 -15 151 -56q66 -42 105 -106q37 -64 37 -162q0 -132 -66 -207q-64 -76 -176 -106v-4q55 -8 117 -35q55 -24 96 -68q41 -41 65 -96q25 -58 25 -129q0 -104 -41 -178q-40 -73 -110 -119q-74 -46 -170 -66q-94 -20 -216 -20h-448z M451 225h151l-2 -4q127 0 191 43q65 44 65 142q0 97 -57 145q-58 49 -185 49h-163v-375zM451 809h133v-2q118 0 170 43q53 44 53 135q0 164 -217 164h-139v-340z" />
<glyph unicode="C" horiz-adv-x="1265" d="M74 686q0 142 45 264q48 129 137 226q85 95 223 155q135 60 305 60q128 0 234 -29q99 -27 178 -82l-129 -211q-60 39 -123 59q-74 23 -162 23q-97 0 -170 -37q-75 -38 -123 -98q-48 -59 -73 -146q-25 -86 -25 -178q0 -95 25 -184q25 -90 73 -152q50 -65 125 -102 q73 -37 177 -37q114 0 184 33q71 29 127 72l119 -203l-11 -2q-32 -29 -69 -49q-61 -34 -99 -48q-61 -23 -122 -34q-73 -13 -142 -13q-172 0 -307 60q-134 59 -221 157q-85 95 -133 228q-43 128 -43 268z" />
<glyph unicode="D" horiz-adv-x="1445" d="M170 0v1364h410q199 0 348 -47q151 -51 243 -137q94 -88 144 -209q47 -124 47 -271t-47 -274q-45 -124 -144 -223q-102 -97 -247 -148q-149 -55 -353 -55h-401zM457 231h135l-4 -4q231 0 348 117t117 346t-115 338q-114 105 -356 105h-125v-902z" />
<glyph unicode="E" horiz-adv-x="1085" d="M170 0v1364h786v-238h-501v-307h442v-225h-442v-356h516v-238h-801z" />
<glyph unicode="F" horiz-adv-x="1044" d="M170 0v1364h782v-238h-493v-333h434v-226h-434v-567h-289z" />
<glyph unicode="G" horiz-adv-x="1454" d="M78 678q0 139 49 264q49 124 145 225q89 93 234 158q139 59 317 59q154 0 262 -30q107 -30 189 -90l-129 -215q-63 46 -141 73q-80 25 -185 25q-107 0 -188 -35t-133 -96t-80 -146q-27 -82 -27 -182q0 -95 25 -184q25 -88 76 -154q52 -67 131 -104q75 -37 184 -37 q83 0 145 18q60 15 97 37v271h-252v223h528v-652l-8 -12q-70 -49 -197 -90q-125 -41 -319 -41q-176 0 -312 62q-137 59 -227 157q-90 97 -137 228q-47 130 -47 268z" />
<glyph unicode="H" horiz-adv-x="1525" d="M170 0v1364h289v-537h610v537h289v-1364h-289v590h-610v-590h-289z" />
<glyph unicode="I" horiz-adv-x="663" d="M182 0v1364h289v-1364h-289z" />
<glyph unicode="J" horiz-adv-x="677" d="M-86 -387l45 235q14 -6 43 -12q27 -6 55 -6q85 0 123 47q37 46 37 158v1329h291v-1368l-2 -2q0 -204 -105 -309t-286 -105q-67 0 -119 10q-33 6 -82 23z" />
<glyph unicode="K" horiz-adv-x="1290" d="M170 0v1364h287v-594l465 594h319l-502 -633l525 -731h-342l-465 653v-653h-287z" />
<glyph unicode="L" horiz-adv-x="1052" d="M174 0v1364h291v-1131h508v-233h-799z" />
<glyph unicode="M" horiz-adv-x="1806" d="M84 0l188 1364h281l4 -6l274 -842q30 -92 41 -139q12 -45 29 -96h4l27 96q14 51 43 141l282 842h279l188 -1364h-294l-89 704l-16 129l-6 72h-4q-2 -15 -19 -74l-36 -120l-232 -709h-285l-231 707q-27 83 -37 120l-20 78h-4l-7 -78q-3 -55 -12 -123l-88 -702h-260z" />
<glyph unicode="N" horiz-adv-x="1519" d="M168 0v1366h289l491 -707q57 -81 99 -151l45 -78h4q-3 15 -6 76q-5 103 -5 141v721h263v-1364h-265l-530 758q-60 82 -86 131l-45 72h-4q1 -3 8 -68q4 -70 4 -117v-780h-262z" />
<glyph unicode="O" horiz-adv-x="1583" d="M76 674q0 140 49 268q47 129 137 227q89 99 221 158q133 59 303 59q171 0 304 -59q131 -58 223 -153q88 -94 135 -222q45 -122 45 -264q0 -143 -45 -268t-133 -227q-86 -99 -215 -158q-132 -60 -301 -60l-15 -8q-170 0 -305 60q-133 59 -221 153q-88 99 -135 228 q-47 127 -47 266zM383 678q0 -88 23 -182q25 -88 73 -154q49 -64 123 -102q69 -38 176 -41l4 2q104 0 179 37q72 37 122 102q51 66 74 149q25 89 25 183q0 88 -23 182q-21 86 -72 152q-50 65 -122 102q-71 39 -177 39q-103 0 -178 -37q-76 -38 -129 -102q-49 -63 -73 -150 q-25 -89 -25 -180z" />
<glyph unicode="P" horiz-adv-x="1210" d="M166 0v1364h448l-6 -6q109 0 207 -25q93 -24 166 -78q68 -51 113 -133q41 -80 41 -190q0 -116 -39 -195q-41 -84 -111 -139q-76 -58 -176 -84q-110 -29 -227 -29h-125v-485h-291zM451 698h129v-2q136 0 198 56t62 170q0 102 -60 159q-59 56 -194 56h-135v-439z" />
<glyph unicode="Q" horiz-adv-x="1583" d="M86 676q0 140 49 268q47 129 137 227q88 99 222 158q135 60 303 60t303 -60q131 -58 223 -153q88 -94 135 -222q45 -122 45 -264q0 -115 -30 -229q-29 -106 -97 -203q-66 -94 -159 -160q-95 -68 -222 -98q59 -77 119 -111q58 -30 148 -30q58 0 98 18q32 14 61 35l92 -191 l3 -10q-34 -27 -101 -53q-73 -29 -170 -29q-75 0 -153 19q-75 15 -144 55q-68 39 -141 109q-75 72 -148 172q-136 21 -245 86q-102 63 -178 157q-71 89 -113 209q-37 115 -37 240zM399 676q0 -88 23 -182q24 -86 74 -154q50 -65 122 -102q69 -38 177 -41l4 2q103 0 178 37 q73 38 123 102q51 66 74 149q24 86 24 183q0 92 -22 182q-21 86 -72 152q-50 64 -123 102q-71 39 -176 39q-103 0 -178 -37q-77 -38 -129 -102q-50 -66 -74 -150q-25 -89 -25 -180z" />
<glyph unicode="R" horiz-adv-x="1269" d="M170 0v1364h455v2q243 0 374 -98q131 -101 131 -293q0 -86 -26 -148q-25 -60 -72 -110q-44 -47 -102 -74q-59 -27 -119 -39v-4q27 -21 68 -65q33 -39 92 -129l266 -406h-317l-250 389q-15 22 -37.5 52.5t-28.5 39.5q-18 27 -47 51q-24 20 -37 23q-18 6 -43 6h-18v-561 h-289zM459 766h157q115 0 170 49q56 50 56 139q0 94 -56 144q-56 47 -182 47h-145v-379z" />
<glyph unicode="S" horiz-adv-x="1056" d="M61 109l123 200l37 -24q27 -20 62 -37q52 -21 86 -29q49 -12 108 -12q103 0 162 47q55 46 55 111q0 45 -24 79q-26 32 -66 56q-56 31 -98 49q-49 21 -115 55q-62 29 -117 68q-50 36 -92 84q-40 46 -61 110q-23 67 -23 146q0 89 35 157q34 70 92 119t140 74q79 27 172 27 q76 0 149 -13q67 -12 115 -30q37 -13 82 -37q22 -12 55 -35l-117 -203h-6q-18 12 -45 27q-23 13 -61 26q-52 18 -74 23q-45 10 -84 10q-84 0 -133 -37t-49 -106q0 -42 20 -68q19 -28 53 -49q44 -27 80 -43l99 -45q60 -26 131 -68q60 -32 112 -84q50 -50 80 -114 q31 -70 31 -162q0 -90 -35 -168t-98 -129t-154 -82q-98 -29 -205 -29q-78 0 -151 13q-62 14 -121 34q-48 19 -90 46q-39 25 -60 43z" />
<glyph unicode="T" horiz-adv-x="1099" d="M29 1126v238h1042v-238h-375v-1126h-290v1126h-377z" />
<glyph unicode="U" horiz-adv-x="1464" d="M158 528v836h288v-811q0 -176 70 -258q67 -82 232 -82q153 0 221 86q67 85 67 236v829h267v-811h-7q0 -280 -139 -428q-138 -150 -418 -150q-298 0 -440 142q-141 141 -141 411z" />
<glyph unicode="V" horiz-adv-x="1361" d="M27 1364h311l287 -817q37 -104 47 -141l22 -84h4l27 84q10 36 43 141l276 817h291l-508 -1364h-274z" />
<glyph unicode="W" horiz-adv-x="1871" d="M35 1364h311l172 -713l19 -84q14 -68 16 -80l10 -61l4 -25h4l7 27q6 25 12 61l18 84l19 86l186 705h285l182 -700l20 -89q2 -12 8.5 -40.5t8.5 -42.5l12 -64l6 -27h4l4 27q1 8 5 28.5t6 32.5l14 82l18 84l177 709h276l-373 -1364h-266l-196 756l-21 84l-18 80l-13 61 l-4 27h-4l-6 -25l-14 -61l-19 -80q-5 -25 -22 -86l-215 -756h-267z" />
<glyph unicode="X" horiz-adv-x="1261" d="M39 0l432 700l-412 664h328l258 -426l242 426h291l-394 -659l439 -705h-328l-287 471l-276 -471h-293z" />
<glyph unicode="Y" horiz-adv-x="1224" d="M23 1364h321l289 -580h2l287 580h280l-438 -850v-514h-289v514z" />
<glyph unicode="Z" horiz-adv-x="1169" d="M94 0v188l625 940h-598v236h948v-184l-631 -944h649v-236h-993z" />
<glyph unicode="[" horiz-adv-x="698" d="M133 -330v1805h512v-203h-252v-1399h252v-203h-512z" />
<glyph unicode="\" horiz-adv-x="921" d="M2 1475h264l652 -1805h-265z" />
<glyph unicode="]" horiz-adv-x="698" d="M53 -127h252v1399h-252v203h512v-1805h-512v203z" />
<glyph unicode="^" horiz-adv-x="1196" d="M90 590l412 774h190l412 -774h-250l-256 493l-256 -493h-252z" />
<glyph unicode="_" horiz-adv-x="886" d="M-2 -166h891v-211h-891v211z" />
<glyph unicode="`" horiz-adv-x="1024" d="M260 1384h350l170 -276h-233z" />
<glyph unicode="a" horiz-adv-x="1028" d="M63 252q0 98 50 166q45 66 123 110q74 44 170 62q95 18 194 18h35v58q0 68 -35 106q-38 35 -127 35q-78 0 -147 -29q-63 -29 -111 -65l-119 166q56 53 162 100q101 43 244 43q202 0 303 -84q98 -85 98 -285v-358q0 -103 12 -174q8 -62 19 -121h-268l-4 -8q-9 27 -11 51 l-6 55q-41 -51 -110 -90q-71 -41 -170 -41q-60 0 -119 19q-56 18 -96 55q-43 40 -62 90q-25 55 -25 121zM324 272q0 -56 36 -79q39 -25 84 -25q64 0 109 25q44 25 78 61v180h-37q-122 0 -197 -37q-73 -37 -73 -125z" />
<glyph unicode="b" horiz-adv-x="1132" d="M129 55v1420h272v-553q47 43 101 67q67 31 141 31q99 0 172 -33q78 -35 135 -98q56 -65 86 -160q31 -98 31 -225q0 -125 -41 -228q-39 -97 -111 -165q-72 -69 -165 -103q-100 -35 -211 -35q-152 0 -254 27q-98 25 -156 55zM395 209q25 -11 56 -16q40 -7 81 -7 q115 0 179 82q63 81 63 236q0 142 -49 221q-50 80 -160 80q-54 0 -100 -27q-46 -24 -68 -49v-520h-2z" />
<glyph unicode="c" horiz-adv-x="937" d="M55 494q0 125 43 223q40 98 111 166q70 67 166 102t209 35q117 0 196 -29q72 -26 109 -49l-88 -186q-43 26 -84 41q-49 18 -125 18q-119 0 -182 -84q-62 -86 -62 -225q0 -67 19 -129q14 -55 47 -103q30 -43 78 -65q48 -25 110 -25q84 0 139 25q54 25 74 39l84 -182l-4 -7 l-45 -28q-31 -17 -68 -31q-58 -17 -92 -23q-58 -10 -121 -10q-124 0 -215 39q-93 37 -159 109q-69 72 -103 166q-37 93 -37 213z" />
<glyph unicode="d" horiz-adv-x="1140" d="M57 496q0 119 37 217q35 100 92 166q55 67 142 106q81 37 178 37q80 0 141 -21q54 -19 92 -49v523h273v-1190q0 -93 12 -164q9 -74 18 -121h-274q-6 17 -12 53l-8 56q-53 -63 -119 -99q-67 -37 -162 -37q-187 0 -299 136q-111 135 -111 387zM346 498q0 -145 49 -224 t154 -79q59 0 108 30q52 31 78 68v450l-2 5q-42 33 -74 47q-40 18 -98 18q-103 0 -160 -84q-55 -82 -55 -231z" />
<glyph unicode="e" horiz-adv-x="1062" d="M59 502q0 124 39 215q39 98 105 164q65 65 157 104q87 37 195 37q212 0 324 -127q110 -128 110 -365v-45q0 -17 -4 -49h-631q9 -110 68 -184t184 -74q102 0 164 27q45 18 98 43l88 -176l-2 -6q-33 -20 -57 -31q-46 -20 -78 -31q-43 -15 -102 -24q-71 -11 -135 -11 q-131 0 -222 39q-97 37 -163 109q-70 73 -103 168q-35 100 -35 217zM348 614h373v2q0 38 -10 80q-8 35 -29 66q-19 28 -53 43q-37 16 -80 16q-89 0 -135 -55q-51 -54 -66 -152z" />
<glyph unicode="f" horiz-adv-x="747" d="M33 793v202h149v103q0 181 101 288q102 111 295 111q108 0 167 -18q46 -15 74 -29l-63 -205q-17 9 -47 19q-34 12 -91 12q-161 0 -161 -197v-82h237v-202h-237v-795h-273v795h-149z" />
<glyph unicode="g" horiz-adv-x="1099" d="M55 -221q0 82 47 141q44 56 121 98q-42 25 -63 62q-25 39 -25 90q0 73 33 117q35 47 80 73q-84 46 -131 123q-45 74 -45 176q0 81 30 148q31 70 88 115q53 45 140 73q82 27 186 27q98 0 178 -25h363v-180h-131q41 -71 41 -158q0 -159 -111 -258q-109 -100 -321 -100 q-42 0 -62 2l-57 6q-37 -21 -37 -55q0 -41 47 -53q52 -13 154 -19q76 -3 159 -12q79 -6 152 -35q63 -25 110 -88q43 -61 43 -172q0 -84 -38 -145q-42 -67 -113 -115q-73 -49 -174 -76q-98 -26 -223 -26q-206 0 -324 65q-117 64 -117 201zM326 -176q0 -60 45 -96 q44 -35 134 -35h15v-2q125 0 193 41q67 43 67 106q0 41 -18 62q-16 19 -49 32q-34 10 -76 13l-98 8q-46 4 -68 4q-44 4 -68 8q-77 -56 -77 -141zM344 657q0 -85 47 -135q46 -49 133 -49t133 49q48 51 48 135q0 87 -48 138q-46 49 -133 49t-133 -49q-47 -50 -47 -138z" />
<glyph unicode="h" horiz-adv-x="1138" d="M129 0v1475h272v-601q19 22 48 48q33 29 67 47q43 24 86 37q53 16 111 16q80 0 141 -25q58 -24 92 -67q33 -42 49 -103q17 -66 17 -129v-698h-273v643q0 75 -28 117q-30 37 -103 37q-34 0 -73 -17q-33 -14 -62 -37q-24 -19 -45 -43l-27 -30v-670h-272z" />
<glyph unicode="i" horiz-adv-x="573" d="M121 1290q0 64 47 111t117 47q71 0 121 -47q49 -46 49 -111q0 -64 -47 -114q-50 -50 -121 -50h-2q-70 0 -117 50t-47 114zM147 0v997h275v-997h-275z" />
<glyph unicode="j" horiz-adv-x="563" d="M-102 -455l47 211q8 -3 28 -6q24 -4 50 -4q71 0 98 47q24 49 24 166v1038h275v-1073q0 -87 -19 -168q-18 -76 -59 -129q-44 -53 -109 -80q-67 -28 -157 -28q-81 0 -117 8q-43 9 -61 18zM117 1290q0 64 47 111t117 47q73 0 120 -47q48 -48 48 -111t-48 -114 q-47 -50 -120 -50q-70 0 -117 50t-47 114z" />
<glyph unicode="k" horiz-adv-x="1058" d="M129 0v1475h272v-881l330 403h297l-369 -444l377 -553h-315l-320 487v-487h-272z" />
<glyph unicode="l" horiz-adv-x="563" d="M145 0v1475h273v-1475h-273z" />
<glyph unicode="m" horiz-adv-x="1685" d="M133 0v997h262v-118l45 47q30 30 64 49q42 23 84 37q50 16 104 16q107 0 168 -43q63 -45 90 -115q68 74 137 115q73 43 183 43q80 0 135 -24q52 -22 88 -68q34 -43 49 -102q14 -55 14 -129v-699h-272v643q0 73 -24 111q-23 39 -93 39q-30 0 -59 -13t-49 -30 q-21 -13 -43 -35q-25 -25 -35 -37v-682h-272v643q0 73 -29 117q-27 37 -90 37q-34 0 -68 -17q-32 -16 -53 -37q-22 -19 -39 -43l-24 -30v-672h-273zM395 997v4l4 -4h-4z" />
<glyph unicode="n" horiz-adv-x="1140" d="M133 0v995h266l2 4v-125q51 63 129 107q76 43 185 43q81 0 139 -25q56 -24 90 -67q38 -44 53 -105q17 -66 17 -127v-698h-273v643q0 76 -28 115q-30 37 -105 37q-30 0 -63 -13q-34 -14 -56 -30q-24 -18 -47 -41q-18 -18 -36 -43v-670h-273z" />
<glyph unicode="o" horiz-adv-x="1126" d="M53 498q0 88 29 190q27 95 90 170t156 121q96 47 227 47t229 -43q98 -48 160 -119q62 -74 92 -166q31 -95 31 -190q0 -90 -29 -191q-30 -95 -92 -172q-59 -73 -158 -122q-93 -46 -212 -46h-15l-6 3q-136 0 -227 45q-97 48 -156 118q-63 76 -90 166q-29 98 -29 189z M344 510q0 -70 12 -129t39 -102q24 -43 66 -68t98 -25l4 4q117 0 164 86t47 228q0 70 -12 129q-11 54 -41 102q-28 45 -70 68q-43 24 -100 24q-56 0 -98 -22q-39 -23 -64 -68q-27 -45 -35 -98q-10 -65 -10 -129z" />
<glyph unicode="p" horiz-adv-x="1144" d="M133 -449v1446h260v-104q40 52 109 90q65 39 170 39q190 0 301 -135q108 -135 108 -387q0 -127 -32 -215q-35 -96 -93 -166q-57 -66 -141 -107q-81 -37 -180 -37q-90 0 -148 25q-46 20 -81 47v-496h-273zM399 256q28 -22 70 -45q44 -23 104 -23q103 0 160 84 q55 82 55 232q0 142 -49 221q-49 82 -149 82q-40 0 -70 -12q-29 -12 -55 -31q-21 -13 -41 -33l-25 -29v-446z" />
<glyph unicode="q" horiz-adv-x="1134" d="M68 492q0 124 41 227q41 100 110 166q70 67 166 102t209 35q93 0 156 -8t118 -21q45 -11 86 -24l54 -21v-1394h-273v526l-2 -2q-37 -40 -98 -74q-59 -33 -146 -33q-99 0 -172 33q-81 36 -133 100q-57 66 -86 162q-30 99 -30 226zM350 487q0 -144 51 -221q53 -80 162 -80 q29 0 62 11q25 8 49 22q20 11 37 25q19 15 22 20v516l-47 15q-38 10 -88 10q-118 0 -182 -82q-66 -84 -66 -236z" />
<glyph unicode="r" horiz-adv-x="798" d="M133 0v997h273l-3 -4v-135q13 24 41 55q28 32 56 54q32 25 71 37q38 14 86 14q57 0 88 -8q33 -10 48 -19l-66 -237q-11 8 -37 18q-24 6 -67 6t-80 -16q-34 -16 -64 -43q-31 -27 -47 -49q-7 -9 -26 -41v-629h-273z" />
<glyph unicode="s" horiz-adv-x="860" d="M49 70l92 190l39 -24q25 -15 58 -27q54 -19 73 -23q42 -10 78 -10q73 0 121 23q43 21 43 67q0 25 -18 43t-54 37q-8 3 -23 10t-29 13.5t-28 11.5q-26 10 -98 43q-104 49 -164 115q-59 65 -59 178q0 141 104 223q101 82 271 82q125 0 207 -29q74 -29 110 -51l-96 -186h-10 q-32 21 -84 41q-58 22 -127 22t-105 -22q-33 -23 -33 -66q0 -24 17 -41q14 -17 43 -33q31 -17 67 -28l80 -31q39 -16 111 -53q46 -25 86 -62q36 -33 57 -80t21 -110q0 -159 -105 -238q-106 -80 -291 -80q-139 0 -221 33q-81 28 -133 62z" />
<glyph unicode="t" horiz-adv-x="792" d="M37 797v202h160v289h270v-289h233v-202h-233v-455q0 -73 25 -109q21 -34 79 -34q48 0 80 14q25 9 49 23l64 -203l-2 2q-35 -18 -92 -37q-62 -21 -158 -21q-174 0 -246 84q-69 81 -69 228v508h-160z" />
<glyph unicode="u" horiz-adv-x="1140" d="M123 297v698h272v-643q0 -74 29 -114q30 -37 104 -37q37 0 74 16q33 14 62 37q24 19 45 43l26 31v669h273v-710q0 -105 8 -168q9 -71 18 -119h-268l-2 -4q-6 22 -12 61q-6 37 -9 72q-28 -32 -49 -53q-30 -30 -67 -49q-46 -24 -92 -37q-59 -17 -113 -17q-80 0 -141 25 q-59 24 -93 70q-34 43 -49 102q-16 62 -16 127z" />
<glyph unicode="v" horiz-adv-x="1038" d="M20 997h295l207 -659h4l213 659h277l-369 -997h-256z" />
<glyph unicode="w" horiz-adv-x="1521" d="M23 997h292l152 -635h4l170 635h252l170 -639h4l156 639h272l-285 -997h-245l-205 668h-4l-205 -668h-246z" />
<glyph unicode="x" horiz-adv-x="1046" d="M33 0l340 516l-328 481v2h307l88 -133l62 -94q28 -45 30 -47l160 272h281l-309 -469l352 -528h-307l-207 319l-189 -319h-280z" />
<glyph unicode="y" horiz-adv-x="1058" d="M6 -459l39 215l31 -8q28 -4 67 -4q105 0 152 47t74 127l37 102l-375 977h291l225 -657h6l203 657h280l-411 -1103l2 2q-38 -97 -74 -160q-42 -72 -92 -117q-54 -48 -125 -72q-74 -24 -176 -24q-68 0 -101 8z" />
<glyph unicode="z" horiz-adv-x="937" d="M80 0v147l434 646h-414v204h746v-157l-432 -635h436v-205h-770z" />
<glyph unicode="{" d="M49 477v205q234 6 234 209v330q0 65 20 112q22 50 55 78q39 34 80 47q49 17 90 17h244v-203h-127q-66 0 -84 -37t-18 -102v-299q0 -109 -54 -166t-133 -78v-4q82 -27 138 -86q53 -59 53 -172v-318q0 -70 18 -104q17 -33 84 -33h127v-203h-246l-6 -6q-39 0 -88 17 q-40 14 -78 47q-34 30 -55 79q-22 49 -22 113v350q0 94 -56 150q-54 51 -176 57z" />
<glyph unicode="|" horiz-adv-x="585" d="M174 -512v2048h240v-2048h-240z" />
<glyph unicode="}" d="M53 -127h127l-2 -4q66 0 84 37q19 40 19 104v322q0 111 55 166q53 56 135 80v4q-82 27 -135 86q-51 57 -51 174v295q0 70 -19 102q-17 33 -84 33h-129v203h248q39 0 88 -17q40 -14 78 -47q31 -27 57 -80q23 -54 23 -110v-328q0 -96 55 -148t178 -55v-205 q-121 -3 -176 -55t-55 -154v-352q0 -59 -23 -110q-22 -50 -55 -78q-37 -33 -80 -49q-53 -17 -92 -17h-246v203z" />
<glyph unicode="~" horiz-adv-x="1198" d="M72 524q31 31 51 49q37 30 74 50q41 21 90 39q53 16 106 16q67 0 119 -19q16 -6 94 -41q54 -26 90 -40q49 -19 115 -19q58 0 109 31q48 26 77 55l123 -160l-8 -8q-14 -16 -53 -51q-34 -27 -72 -47q-45 -23 -90 -37q-46 -14 -104 -14q-77 0 -129 18q-42 14 -97 41 q-79 38 -86 41q-43 18 -104 18q-68 0 -113 -28q-27 -18 -69 -56z" />
<glyph unicode="&#xa4;" horiz-adv-x="1273" d="M127 141l162 203l2 2q-36 51 -55 115q-19 65 -19 129q0 68 21 133q21 64 61 119l-164 207l197 151l160 -215q41 14 73 19q41 6 82 6q72 0 139 -23l158 211l199 -151l-156 -195q47 -53 68 -123q22 -74 22 -141q0 -69 -22 -137q-20 -64 -66 -123l148 -187l-199 -151 l-145 198q-74 -22 -148 -22q-93 0 -166 31l-153 -207zM471 592q0 -79 47 -135q46 -55 129 -58v2q86 0 133 56t47 135q0 81 -47 137q-50 53 -131 53q-80 0 -129 -55t-49 -135z" />
<glyph unicode="&#xa6;" horiz-adv-x="493" d="M123 262h239v-774h-239v774zM123 782v754h239v-754h-239z" />
<glyph unicode="&#xa7;" horiz-adv-x="952" d="M74 676q0 97 47 168q50 69 110 108q-31 50 -49 95q-20 50 -20 112q0 77 31 144q30 62 81 104q50 44 117 68t144 24q117 0 184 -24q57 -20 104 -54l-100 -180l6 -10q-22 16 -55 33q-34 18 -99 18q-64 0 -98 -37q-31 -36 -31 -84q0 -45 31 -90q27 -39 78 -90l104 -96 q60 -56 103 -111q50 -59 80 -127q30 -67 30 -149q0 -52 -14 -90q-10 -32 -35 -74q-22 -36 -49 -60q-31 -31 -55 -47q31 -46 49 -92q20 -47 20 -104q0 -95 -32 -158q-36 -70 -88 -111q-54 -42 -127 -61q-67 -20 -148 -20q-107 0 -178 24q-65 23 -102 49l84 197q29 -21 61 -35 q40 -18 98 -18q76 0 115 36q41 38 41 99q0 45 -33 84q-34 43 -82 88l-104 92q-62 56 -105 106q-46 54 -82 125q-32 63 -32 148zM344 684q0 -30 23 -74q21 -35 59 -80q29 -34 74 -79l71 -72l4 -2q19 19 33 47q13 26 13 59q0 32 -25 74q-21 35 -59 80q-30 36 -78 80 q-29 27 -76 74q-20 -17 -29 -41q-10 -27 -10 -66z" />
<glyph unicode="&#xa9;" horiz-adv-x="1712" d="M86 739q0 158 61 295q63 142 166 242q107 107 242 164q137 61 295 61t295 -61q141 -63 244 -166q101 -101 165 -244q62 -139 62 -295q0 -153 -60 -295q-62 -139 -163 -243q-105 -105 -244 -164q-139 -62 -295 -62l-8 4q-156 0 -295 62q-137 61 -240 164 q-106 106 -164 243q-61 137 -61 295zM250 739q0 -143 45 -250q47 -112 125 -190q79 -79 188 -123q107 -43 238 -43l-6 -6q129 0 239 43q112 44 191 123t125 192q45 107 45 250q0 138 -45 248q-47 112 -123 191q-75 75 -189 124q-110 43 -239 43q-131 0 -238 -43 q-112 -45 -186 -122q-77 -77 -125 -191q-45 -107 -45 -246zM403 731q0 98 35 182t97 146q61 61 145 96t178 35q53 0 105 -10q42 -8 84 -25q36 -14 65 -37q26 -18 49 -37l-108 -153q-23 18 -72 45q-43 24 -117 24q-57 0 -98 -20q-46 -22 -74 -57q-33 -42 -47 -84 q-16 -50 -16 -99q0 -57 18 -110q18 -51 51 -86q30 -37 76 -58q41 -20 96 -20q79 0 129 33q64 45 78 57l103 -147q-27 -23 -50 -41q-40 -28 -69 -43q-46 -24 -92 -37q-57 -13 -117 -13q-94 0 -178 35t-142 96q-57 57 -94 146q-35 84 -35 182z" />
<glyph unicode="&#xab;" horiz-adv-x="1103" d="M66 502l245 395h279l-244 -395l244 -393h-279zM520 502l246 395h278l-243 -395l243 -393h-278z" />
<glyph unicode="&#xac;" horiz-adv-x="1277" d="M82 440v211h1100v-590h-219v379h-881z" />
<glyph unicode="&#xad;" horiz-adv-x="675" d="M104 467v221h467v-221h-467z" />
<glyph unicode="&#xae;" horiz-adv-x="1712" d="M86 739q0 158 61 295q63 142 166 242q107 107 242 164q137 61 295 61t295 -61q141 -63 244 -166q101 -101 165 -244q62 -139 62 -295q0 -153 -60 -295q-62 -139 -163 -243q-105 -105 -244 -164q-139 -62 -295 -62l-8 4q-156 0 -295 62q-137 61 -240 164 q-106 106 -164 243q-61 137 -61 295zM250 739q0 -143 45 -250q47 -112 125 -190q79 -79 188 -123q107 -43 238 -43l-6 -6q129 0 239 43q112 44 191 123t125 192q45 107 45 250q0 138 -45 248q-47 112 -123 191q-75 75 -189 124q-110 43 -239 43q-131 0 -238 -43 q-112 -45 -186 -122q-77 -77 -125 -191q-45 -107 -45 -246zM549 317v854h303l-2 -2q151 0 227 -67q78 -69 78 -182q0 -104 -55 -156q-57 -57 -139 -72q19 -13 45 -43q17 -19 57 -80l154 -250h-211l-162 271q-26 44 -49 61q-24 17 -56 17v-351h-190zM737 797h78v-2 q61 0 105 24q43 24 43 90q0 53 -31 84t-103 31h-92v-227z" />
<glyph unicode="&#xb0;" horiz-adv-x="708" d="M63 1100q0 59 25 114q24 53 64 93t92 61q57 23 110 23q54 0 111 -23q52 -21 92 -61t64 -93q24 -52 24 -114q0 -56 -22 -111q-20 -50 -62 -92q-40 -40 -92 -61q-57 -23 -115 -23l-2 -2q-52 0 -110 23q-52 21 -92 61q-42 42 -62 92q-25 55 -25 113zM227 1098q0 -59 35 -97 q33 -36 90 -36v-2q57 0 90 36q35 38 35 97q0 57 -35 98q-34 37 -90 37t-90 -37q-35 -38 -35 -96z" />
<glyph unicode="&#xb1;" horiz-adv-x="1175" d="M84 434v209h377v369h233v-369h371v-209h-371v-381h-233v381h-377zM113 -100h927v-211h-927v211z" />
<glyph unicode="&#xb5;" horiz-adv-x="1157" d="M127 -446v1443h270v-647q0 -62 25 -104q24 -41 96 -41q38 0 72 12q30 11 61 31q24 16 49 41l37 37v669h273v-714q0 -91 6 -164q5 -66 16 -117h-268q-6 18 -12 61q-6 42 -9 74l-43 -45q-28 -28 -55 -47t-72 -39q-36 -14 -90 -20q-25 -3 -49 0q-21 3 -43 10h-6q3 -21 6 -74 q2 -35 2 -129v-237h-266zM397 997v2l2 -2h-2z" />
<glyph unicode="&#xb6;" horiz-adv-x="1355" d="M72 936q0 102 32 176q34 80 93 135q60 57 137 86q79 31 164 31h788v-213h-153v-1513h-236v1513h-160v-1513h-239v878l-2 -2q-85 0 -164 31q-76 30 -135 86q-58 55 -93 133q-32 71 -32 172z" />
<glyph unicode="&#xb7;" horiz-adv-x="528" d="M78 594q0 73 55 125q51 51 129 51q77 0 131 -51q53 -53 53 -125t-53 -125q-51 -51 -129 -51h-4q-78 0 -129 51q-53 53 -53 125z" />
<glyph unicode="&#xbb;" horiz-adv-x="1103" d="M57 109l246 395l-246 393h279l246 -393l-246 -395h-279zM514 109l244 395l-244 393h277l247 -393l-247 -395h-277z" />
<glyph unicode="&#x401;" horiz-adv-x="1085" d="M170 0v1364h786v-238h-501v-307h442v-225h-442v-356h516v-238h-801zM195 1618q0 59 43 102t108 43q66 0 109 -43t43 -102q0 -62 -43 -105t-109 -43q-65 0 -108 43t-43 105zM625 1618q0 59 43 102t108 43q66 0 109 -43t43 -102q0 -62 -43 -105t-109 -43q-65 0 -108 43 t-43 105z" />
<glyph unicode="&#x402;" horiz-adv-x="1484" d="M20 1126v238h1043v-238h-436v-395q30 38 57 60q42 34 86 55q55 27 111 43q61 18 131 18q101 0 174 -43q76 -45 121 -116q47 -74 71 -173q25 -103 25 -215q0 -180 -45 -319q-46 -144 -123 -246q-76 -105 -178 -160q-101 -55 -215 -55q-42 0 -90 10q-40 8 -66 23l57 229 q32 -14 93 -14q59 0 110 39q50 41 86 106q37 66 58 162q20 87 20 203q0 71 -10 139q-12 60 -37 109q-24 47 -62 71q-39 25 -92 25q-47 0 -88 -14q-40 -14 -78 -37q-33 -18 -65 -47q-26 -23 -43 -47v-537h-287v1128h-319z" />
<glyph unicode="&#x403;" horiz-adv-x="1005" d="M170 0v1364h805v-234h-516v-1130h-289zM389 1468l170 277h352l-286 -277h-236z" />
<glyph unicode="&#x404;" horiz-adv-x="1265" d="M74 678q0 146 45 268q47 128 137 225q87 97 223 156q129 57 305 57q131 0 234 -28q97 -26 178 -80l-129 -211q-57 36 -123 61q-74 23 -162 23q-80 0 -149 -29q-68 -27 -117 -73q-53 -53 -78 -113q-30 -64 -39 -139h557v-226h-555q8 -69 41 -139q30 -64 80 -111 q49 -46 117 -73q73 -29 152 -29q114 0 184 33q71 29 127 72l119 -203l-11 -6q-35 -31 -69 -50q-55 -30 -99 -47q-57 -22 -122 -36q-73 -13 -142 -13q-176 0 -307 58q-137 61 -221 155q-85 95 -133 228q-43 128 -43 270z" />
<glyph unicode="&#x405;" horiz-adv-x="1056" d="M61 109l123 200l37 -24q27 -20 62 -37q52 -21 86 -29q49 -12 108 -12q103 0 162 47q55 46 55 111q0 45 -24 79q-26 32 -66 56q-56 31 -98 49q-49 21 -115 55q-62 29 -117 68q-50 36 -92 84q-40 46 -61 110q-23 67 -23 146q0 89 35 157q34 70 92 119t140 74q79 27 172 27 q76 0 149 -13q67 -12 115 -30q37 -13 82 -37q22 -12 55 -35l-117 -203h-6q-18 12 -45 27q-23 13 -61 26q-52 18 -74 23q-45 10 -84 10q-84 0 -133 -37t-49 -106q0 -42 20 -68q19 -28 53 -49q44 -27 80 -43l99 -45q60 -26 131 -68q60 -32 112 -84q50 -50 80 -114 q31 -70 31 -162q0 -90 -35 -168t-98 -129t-154 -82q-98 -29 -205 -29q-78 0 -151 13q-62 14 -121 34q-48 19 -90 46q-39 25 -60 43z" />
<glyph unicode="&#x406;" horiz-adv-x="651" d="M170 0v1364h289v-1364h-289z" />
<glyph unicode="&#x407;" horiz-adv-x="663" d="M-39 1618q0 59 43 102t109 43q65 0 108 -43t43 -102q0 -62 -43 -105t-108 -43q-66 0 -109 43t-43 105zM182 0v1364h289v-1364h-289zM391 1618q0 59 43 102t109 43q65 0 108 -43t43 -102q0 -62 -43 -105t-108 -43q-66 0 -109 43t-43 105z" />
<glyph unicode="&#x408;" horiz-adv-x="677" d="M-86 -387l45 235q14 -6 43 -12q27 -6 55 -6q85 0 123 47q37 46 37 158v1329h291v-1368l-2 -2q0 -204 -105 -309t-286 -105q-67 0 -119 10q-33 6 -82 23z" />
<glyph unicode="&#x409;" horiz-adv-x="2017" d="M41 197l4 6v-6h-4zM45 197q109 15 156 135q47 125 65 348l56 680h925v-486h178q113 0 207 -24q93 -24 166 -78q70 -52 111 -133q41 -80 41 -188q0 -116 -39 -195q-40 -84 -111 -143q-74 -58 -172 -84q-110 -29 -227 -29h-434v1126h-383l-37 -516q-12 -165 -47 -288 t-92 -197q-58 -76 -142 -111q-81 -34 -190 -34zM1249 213h148l-2 -4q139 0 202 57q62 56 62 170q0 103 -60 160q-61 55 -194 55h-156v-438z" />
<glyph unicode="&#x40a;" horiz-adv-x="2052" d="M170 0v1364h289l-8 -4v-516h540v516h289v-516h178q109 0 207 -25q95 -24 166 -74q70 -52 113 -131q41 -77 41 -182q0 -111 -39 -188q-41 -81 -111 -133q-70 -55 -172 -82q-110 -29 -227 -29h-437v610h-540v-610h-289zM1280 215h150v-4q137 0 198 55q62 53 62 156 q0 93 -60 147t-194 54h-156v-408z" />
<glyph unicode="&#x40b;" horiz-adv-x="1513" d="M23 1130v238h1042v-238h-436v-395q27 35 61 60q43 34 88 55q55 27 111 43q61 18 129 18q182 0 285 -106q102 -108 102 -283v-522h-287v465q0 113 -57 164q-59 53 -143 53q-50 0 -91 -14q-34 -12 -79 -37q-35 -20 -66 -47q-31 -25 -47 -47v-537h-287v1126h-319z" />
<glyph unicode="&#x40c;" horiz-adv-x="1306" d="M170 0v1364h287l-2 -6v-563h96l399 563h310l-474 -633q33 -33 74 -86q38 -53 84 -129l78 -129q33 -50 61 -86q24 -31 60 -49q34 -17 67 -17h19v-235h-119q-66 0 -109 14q-47 15 -86 51q-36 30 -79 93q-50 68 -91 137l-71 121q-26 46 -58 90q-24 33 -53 55q-24 18 -55 18 h-51v-573h-287zM528 1468l170 277h353l-287 -277h-236z" />
<glyph unicode="&#x40e;" horiz-adv-x="1212" d="M72 1358h278l277 -633l276 633h279l-461 -1022l4 -2q-43 -97 -84 -158q-43 -64 -96 -108t-117 -62t-152 -18q-49 0 -83 6q-40 6 -54 12l39 215q30 -10 80 -10q76 0 123 47q47 46 84 129l20 51zM285 1753h223q3 -59 35 -96q30 -37 88 -37q56 0 86 37q31 39 37 98h221 l-2 -6q-6 -78 -37 -139q-30 -58 -78 -97q-46 -37 -104 -55t-123 -18t-123 18q-59 18 -105 58q-49 37 -79 98q-30 58 -39 139z" />
<glyph unicode="&#x40f;" horiz-adv-x="1466" d="M170 0v1364h287v-1126h551v1126h290v-1364h-458l-15 -299h-182l-16 299h-457z" />
<glyph unicode="&#x410;" horiz-adv-x="1392" d="M31 0l520 1364h278l535 -1364h-315l-93 256h-544l-90 -256h-291zM492 487h382l-116 326q-32 82 -49 152q-15 60 -25 84h-4q-12 -32 -25 -88q-8 -30 -47 -148z" />
<glyph unicode="&#x411;" horiz-adv-x="1245" d="M170 0v1364h854l-12 -4v-238h-566v-278h179q106 0 209 -25q93 -24 165 -74q70 -52 113 -131q41 -77 41 -182q0 -111 -39 -188q-42 -82 -110 -133q-69 -55 -173 -82q-110 -29 -227 -29h-434zM446 215h148l-2 -4q139 0 203 55q61 52 61 156q0 94 -59 147q-60 54 -195 54 h-156v-408z" />
<glyph unicode="&#x412;" horiz-adv-x="1232" d="M170 0v1364h455l-4 6q95 0 180 -18q86 -15 151 -56q66 -42 105 -106q37 -64 37 -162q0 -132 -66 -207q-64 -76 -176 -106v-4q55 -8 117 -35q55 -24 96 -68q41 -41 65 -96q25 -58 25 -129q0 -104 -41 -178q-40 -73 -110 -119q-74 -46 -170 -66q-94 -20 -216 -20h-448z M451 225h151l-2 -4q127 0 191 43q65 44 65 142q0 97 -57 145q-58 49 -185 49h-163v-375zM451 809h133v-2q118 0 170 43q53 44 53 135q0 164 -217 164h-139v-340z" />
<glyph unicode="&#x413;" horiz-adv-x="1005" d="M170 0v1364h805v-234h-516v-1130h-289z" />
<glyph unicode="&#x414;" horiz-adv-x="1492" d="M45 238h107q31 35 49 69q22 42 39 92q15 53 30 123q16 96 25 162l100 680h871v-1126h139l-39 -537h-182l-23 299h-868l-23 -299h-182zM432 238h539v888h-336l-70 -493q-22 -154 -55 -250q-34 -98 -78 -145z" />
<glyph unicode="&#x415;" horiz-adv-x="1085" d="M170 0v1364h786v-238h-501v-307h442v-225h-442v-356h516v-238h-801z" />
<glyph unicode="&#x416;" horiz-adv-x="1986" d="M41 1364h311l400 -563h94v563h289v-563h96l399 563h309l-473 -633q34 -34 74 -86q38 -53 84 -129l78 -129q33 -50 61 -86q24 -31 60 -49q32 -16 67 -16h19v-236h-119q-66 0 -109 14q-46 15 -86 49q-33 28 -79 91q-50 68 -91 137l-71 119q-26 46 -58 90q-24 33 -53 55 q-24 18 -55 18h-51v-573h-289v573h-53q-34 -3 -56 -20q-23 -17 -51 -53q-34 -47 -55 -88l-72 -121q-46 -77 -90 -137t-80 -91q-40 -34 -86 -49q-43 -14 -108 -14h-119v236l18 2l-6 -2q38 0 68 18q35 17 59 51q35 45 62 88l79 127q50 82 84 127q40 56 72 84z" />
<glyph unicode="&#x417;" horiz-adv-x="1093" d="M39 90l129 209q57 -44 125 -66q71 -26 180 -26q116 0 178 45q66 48 66 143t-68 148q-66 51 -188 51h-154v207h121q116 0 178 45q66 48 66 135q0 75 -54 123q-51 45 -153 45q-94 0 -170 -29q-71 -27 -121 -65l-115 200q59 50 156 88q101 43 252 43q101 0 197 -22 q86 -20 155 -68q68 -49 103 -112q36 -65 36 -156q0 -137 -61 -213q-62 -77 -176 -104v-6l-4 -3q58 -9 114 -34q52 -24 93 -68t61 -100q23 -64 23 -131q0 -102 -41 -176q-43 -72 -115 -123q-75 -50 -172 -74q-103 -25 -213 -25q-141 0 -250 31q-109 36 -178 88z" />
<glyph unicode="&#x418;" horiz-adv-x="1523" d="M170 0v1364h268v-731q0 -57 -4 -139q-3 -62 -6 -74h4l47 78q45 74 96 151l486 713h291v-1364h-269v788q0 47 4 117l5 64h-5q-11 -25 -43 -74q-54 -82 -88 -129l-522 -764h-264z" />
<glyph unicode="&#x419;" horiz-adv-x="1523" d="M168 -6v1364h268l2 -2v-729q0 -58 -4 -140q-3 -61 -6 -73h4l47 78q45 74 96 151l486 713h291v-1364h-269v788q0 56 7 117v64h-5q-11 -25 -43 -74q-54 -82 -88 -129l-522 -764h-264zM418 1753h223q3 -59 35 -96q30 -37 88 -37q56 0 86 37q31 39 37 98h221l-2 -6 q-6 -78 -37 -139q-30 -58 -78 -97q-46 -37 -104 -55q-59 -18 -123 -18t-123 18q-58 18 -104 58q-51 39 -80 98q-30 58 -39 139z" />
<glyph unicode="&#x41a;" horiz-adv-x="1306" d="M170 0v1364h287l-2 -6v-563h96l399 563h310l-474 -633q33 -33 74 -86q38 -53 84 -129l78 -129q33 -50 61 -86q24 -31 60 -49q34 -17 67 -17h19v-235h-119q-66 0 -109 14q-47 15 -86 51q-36 30 -79 93q-50 68 -91 137l-71 121q-26 46 -58 90q-24 33 -53 55q-24 18 -55 18 h-51v-573h-287z" />
<glyph unicode="&#x41b;" horiz-adv-x="1421" d="M45 203l4 -4q113 12 160 135q47 125 65 350l56 680h925v-1364h-288v1126h-383l-37 -516q-12 -165 -47 -288t-92 -197q-58 -76 -142 -111q-81 -34 -190 -34z" />
<glyph unicode="&#x41c;" horiz-adv-x="1806" d="M84 0l188 1364h281l4 -6l274 -842q30 -92 41 -139q12 -45 29 -96h4l27 96q14 51 43 141l282 842h279l188 -1364h-294l-89 704l-16 129l-6 72h-4q-2 -15 -19 -74l-36 -120l-232 -709h-285l-231 707q-27 83 -37 120l-20 78h-4l-7 -78q-3 -55 -12 -123l-88 -702h-260z" />
<glyph unicode="&#x41d;" horiz-adv-x="1525" d="M170 0v1364h289v-537h610v537h289v-1364h-289v590h-610v-590h-289z" />
<glyph unicode="&#x41e;" horiz-adv-x="1583" d="M76 674q0 140 49 268q47 129 137 227q89 99 221 158q133 59 303 59q171 0 304 -59q131 -58 223 -153q88 -94 135 -222q45 -122 45 -264q0 -143 -45 -268t-133 -227q-86 -99 -215 -158q-132 -60 -301 -60l-15 -8q-170 0 -305 60q-133 59 -221 153q-88 99 -135 228 q-47 127 -47 266zM383 678q0 -88 23 -182q25 -88 73 -154q49 -64 123 -102q69 -38 176 -41l4 2q104 0 179 37q72 37 122 102q51 66 74 149q25 89 25 183q0 88 -23 182q-21 86 -72 152q-50 65 -122 102q-71 39 -177 39q-103 0 -178 -37q-76 -38 -129 -102q-49 -63 -73 -150 q-25 -89 -25 -180z" />
<glyph unicode="&#x41f;" horiz-adv-x="1482" d="M170 0v1364h1145v-1364h-289v1126h-567v-1126h-289z" />
<glyph unicode="&#x420;" horiz-adv-x="1212" d="M170 0v1364h446l-8 -6q109 0 207 -25q93 -24 166 -78q68 -51 113 -133q41 -80 41 -190q0 -116 -39 -195q-41 -84 -111 -139q-74 -58 -172 -84q-110 -29 -227 -29h-127v-485h-289zM451 698h129v-2q136 0 198 56t62 170q0 102 -60 159q-59 56 -194 56h-135v-439z" />
<glyph unicode="&#x421;" horiz-adv-x="1265" d="M74 686q0 142 45 264q48 129 137 226q85 95 223 155q135 60 305 60q128 0 234 -29q99 -27 178 -82l-129 -211q-60 39 -123 59q-74 23 -162 23q-97 0 -170 -37q-75 -38 -123 -98q-48 -59 -73 -146q-25 -86 -25 -178q0 -95 25 -184q25 -90 73 -152q50 -65 125 -102 q73 -37 177 -37q114 0 184 33q71 29 127 72l119 -203l-11 -2q-32 -29 -69 -49q-61 -34 -99 -48q-61 -23 -122 -34q-73 -13 -142 -13q-172 0 -307 60q-134 59 -221 157q-85 95 -133 228q-43 128 -43 268z" />
<glyph unicode="&#x422;" horiz-adv-x="1099" d="M29 1126v238h1042v-238h-375v-1126h-290v1126h-377z" />
<glyph unicode="&#x423;" horiz-adv-x="1212" d="M74 1364h278l277 -633l276 633h279l-461 -1022l4 -2q-43 -97 -84 -158q-43 -64 -96 -108t-117 -62t-151 -18q-49 0 -84 6q-40 6 -54 12l39 215q30 -10 80 -10q76 0 123 47q47 46 84 129l20 51z" />
<glyph unicode="&#x424;" horiz-adv-x="1632" d="M55 700q0 117 45 213q43 98 123 172q81 75 197 121q113 46 252 49v113h289v-113q137 -3 253 -47q115 -44 193 -116q80 -74 123 -172t43 -215q0 -115 -41 -218q-42 -99 -121 -178q-79 -73 -192 -119q-115 -44 -258 -47v-143h-289v143l-4 4q-139 3 -252 46 q-118 45 -195 116q-81 74 -123 174q-43 101 -43 217zM340 702q0 -71 25 -135q24 -64 69 -112q49 -49 111 -72q65 -27 141 -27v691l-4 -3q-73 -3 -141 -28q-62 -23 -109 -70q-43 -46 -67 -108q-25 -64 -25 -136zM930 352q78 0 143 27q64 27 111 74q44 44 69 108t25 135 t-25 138q-24 64 -67 110q-45 48 -109 72q-68 25 -143 28v-690z" />
<glyph unicode="&#x425;" horiz-adv-x="1261" d="M39 0l432 700l-412 664h328l258 -426l242 426h291l-394 -659l439 -705h-328l-287 471l-276 -471h-293z" />
<glyph unicode="&#x426;" horiz-adv-x="1525" d="M170 0v1364h287v-1126h551v1126h290v-1126h140l-39 -537h-182l-23 299h-1024z" />
<glyph unicode="&#x427;" horiz-adv-x="1345" d="M92 739v619h287v-561q0 -111 59 -164q58 -55 152 -55q52 0 98 14q44 14 86 39q36 20 68 49q28 22 49 47v637h287v-1364h-287v532l-4 -10q-23 -29 -60 -59q-40 -32 -90 -55q-60 -27 -116 -43q-68 -19 -136 -19q-87 0 -166 29q-71 26 -122 80q-53 56 -78 125 q-27 74 -27 159z" />
<glyph unicode="&#x428;" horiz-adv-x="2142" d="M170 0v1364h287v-1126h463v1126h288v-1126h461v1126h289v-1364h-1788z" />
<glyph unicode="&#x429;" horiz-adv-x="2187" d="M170 0v1364h287v-1126h463v1126h288v-1126h461v1126h289v-1126h141l-39 -537h-182l-23 299h-1685z" />
<glyph unicode="&#x42a;" horiz-adv-x="1378" d="M20 1128v238h586v-485h178q109 0 207 -25q95 -24 166 -80q68 -51 113 -133q41 -80 41 -190q0 -115 -39 -197q-40 -84 -111 -143q-74 -58 -172 -84q-110 -29 -227 -29h-436v1126h-297zM606 221h150q137 0 198 55q62 56 62 168q0 103 -60 160q-58 55 -194 55h-156v-438z " />
<glyph unicode="&#x42b;" horiz-adv-x="1830" d="M170 0v1364h276v-483h179q106 0 209 -25q94 -24 165 -80q68 -51 113 -133q41 -80 41 -190q0 -115 -39 -197q-40 -85 -110 -143q-73 -58 -173 -84q-110 -29 -227 -29h-434zM446 221h146q139 0 203 55q61 55 61 168q0 104 -59 160q-58 55 -195 55h-156v-438zM446 1364v2 l13 -2h-13zM1360 2v1364h289v-1364h-289z" />
<glyph unicode="&#x42c;" horiz-adv-x="1222" d="M170 0v1364h276v-483h179q106 0 209 -25q94 -24 165 -80q68 -51 113 -133q41 -80 41 -190q0 -115 -39 -197q-40 -85 -110 -143q-73 -58 -173 -84q-110 -29 -227 -29h-434zM446 221h146q139 0 203 55q61 55 61 168q0 104 -59 160q-58 55 -195 55h-156v-438zM446 1364v2 l13 -2h-13z" />
<glyph unicode="&#x42d;" horiz-adv-x="1265" d="M43 88l131 211q49 -35 125 -63q77 -25 174 -25q77 0 150 29q68 27 116 75q51 48 80 113q33 70 41 139h-553v226h551q-8 69 -37 137q-23 56 -76 112q-49 49 -114 76q-72 29 -154 29q-96 0 -172 -29q-72 -27 -123 -67l-119 200q36 28 68 47q43 25 92 45q53 21 117 33 q70 13 139 13q176 0 307 -58q130 -59 218 -153q84 -93 129 -226q43 -128 43 -270q0 -135 -48 -268q-46 -129 -135 -228q-84 -94 -221 -155q-135 -60 -305 -60q-141 0 -246 31q-100 29 -178 86z" />
<glyph unicode="&#x42e;" horiz-adv-x="2254" d="M170 0v1364h289v-537h303q20 109 76 215q57 105 143 179q86 77 205 120q116 43 264 43q170 0 303 -59q129 -57 223 -154q88 -94 138 -221q47 -127 47 -264q0 -143 -45 -268q-47 -131 -131 -228t-216 -157t-301 -60q-156 0 -280 50t-213 133t-141 196q-53 112 -68 238 h-307v-590h-289zM1051 684q0 -96 24 -182t74 -154q50 -65 125 -102q69 -38 176 -41l-4 2q105 0 180 37q74 38 123 102q50 66 74 150q24 85 24 182q0 92 -22 182q-20 83 -70 152q-49 64 -123 102q-71 39 -176 39t-180 -37q-78 -38 -127 -102q-50 -66 -74 -150 q-24 -86 -24 -180z" />
<glyph unicode="&#x42f;" horiz-adv-x="1277" d="M82 0v236l20 -3l-6 -4q33 0 62 13q29 16 55 45q29 29 55 71l66 107q34 52 63 84q34 37 64 55v4q-61 9 -123 37q-54 25 -100 74q-43 45 -70 108q-25 64 -25 142q0 194 131 295q129 100 375 100h457v-1364h-291v569h-27q-32 -7 -51 -26q-24 -18 -49 -54q-41 -64 -53 -86 l-70 -112q-46 -77 -90 -137t-80 -91q-40 -34 -86 -49q-43 -14 -106 -14h-121zM430 948q0 -89 53 -139q55 -49 172 -49h158v377h-145q-122 0 -181 -47q-57 -45 -57 -142z" />
<glyph unicode="&#x430;" horiz-adv-x="1028" d="M63 252q0 98 50 166q45 66 123 110q74 44 170 62q95 18 194 18h35v58q0 68 -35 106q-38 35 -127 35q-78 0 -147 -29q-63 -29 -111 -65l-119 166q56 53 162 100q101 43 244 43q202 0 303 -84q98 -85 98 -285v-358q0 -103 12 -174q8 -62 19 -121h-268l-4 -8q-9 27 -11 51 l-6 55q-41 -51 -110 -90q-71 -41 -170 -41q-60 0 -119 19q-56 18 -96 55q-43 40 -62 90q-25 55 -25 121zM324 272q0 -56 36 -79q39 -25 84 -25q64 0 109 25q44 25 78 61v180h-37q-122 0 -197 -37q-73 -37 -73 -125z" />
<glyph unicode="&#x431;" horiz-adv-x="1130" d="M82 655q0 153 31 289q26 129 92 230q64 98 168 165q111 71 260 97l330 61l36 -227l-327 -53h-6q-135 -24 -220 -103q-83 -77 -92 -219q44 44 109 74t158 30q94 0 172 -34q79 -35 141 -99q58 -60 94 -157q35 -96 35 -217q0 -120 -37 -218q-39 -98 -102 -161 q-69 -69 -156 -103q-87 -37 -190 -37q-133 0 -230 54q-94 52 -153 145t-86 217q-27 123 -27 266zM356 610q0 -231 58 -329q55 -101 157 -101q95 0 148 80q51 77 51 227q0 139 -47 228q-46 88 -148 88q-82 0 -129 -35q-44 -32 -79 -80q-2 -10 -2 -37v-37z" />
<glyph unicode="&#x432;" horiz-adv-x="1064" d="M145 0v997h437l-4 4q72 0 143 -12q63 -11 121 -41q50 -26 82 -78q30 -50 30 -122q0 -103 -53 -156t-133 -74v-2q41 -5 86 -22q37 -16 72 -48q31 -31 49 -71q18 -41 18 -96q0 -77 -30 -129t-86 -87q-53 -33 -134 -49q-71 -14 -165 -14h-433zM408 197h155v2q85 0 125 24 q39 23 39 84q0 117 -154 117h-165v-227zM410 598h137l-2 -2q72 0 112 29q35 27 35 84q0 102 -141 102h-141v-213z" />
<glyph unicode="&#x433;" d="M145 0v997h656v-213h-383v-784h-273z" />
<glyph unicode="&#x434;" horiz-adv-x="1218" d="M33 213h78q77 59 104 289l64 495h745v-784h113l-39 -512h-172l-25 299h-629l-22 -299h-174zM373 213h387v573h-266l-37 -321q-9 -89 -31 -154q-19 -55 -53 -98z" />
<glyph unicode="&#x435;" horiz-adv-x="1062" d="M57 502q0 124 39 215q39 98 105 164q65 65 157 104q87 37 195 37q234 0 346 -154q110 -152 86 -432h-631q9 -110 68 -184t184 -74q102 0 164 27q45 18 98 43l88 -176l-4 -6q-33 -20 -57 -31q-46 -20 -78 -31q-43 -15 -102 -24q-71 -11 -135 -11q-131 0 -222 39 q-97 37 -163 109q-70 73 -103 168q-35 100 -35 217zM346 614h373v2q0 38 -10 80q-8 35 -29 66q-19 28 -53 43q-37 16 -80 16q-89 0 -135 -55q-51 -54 -66 -152z" />
<glyph unicode="&#x436;" horiz-adv-x="1628" d="M35 997h293l290 -403h64v403h272v-403h62l291 403h295l-342 -448q60 -51 126 -162q60 -103 99 -149q33 -39 67 -39h15v-199h-115q-46 0 -84 10q-33 12 -65 37q-34 27 -60 66q-33 49 -65 102q-30 48 -58 92q-27 42 -45 60q-22 22 -43 34q-23 13 -43 13h-39v-412h-272v412 h-41q-19 0 -41 -11q-21 -14 -41 -34q-18 -18 -45 -60q-9 -14 -29.5 -47t-27.5 -45q-21 -35 -66 -102q-31 -42 -61 -66q-31 -25 -66 -37q-34 -12 -84 -12h-115v199h15v-4q22 0 35 8q15 9 36 33t43 59l58 92q69 114 129 162z" />
<glyph unicode="&#x437;" horiz-adv-x="882" d="M47 74l94 174l2 8q53 -31 111 -47q68 -19 141 -19q164 0 164 123q0 33 -18 54t-45 36q-32 18 -64 23q-38 6 -76 6h-77v168h71q72 0 123 31q49 27 49 84q0 52 -37 82t-106 30q-67 0 -129 -16q-54 -14 -98 -43l-89 172q54 33 138 61q85 29 182 29q72 0 147 -16 q73 -16 127 -49q53 -33 88 -86q33 -50 33 -127q0 -103 -53 -156t-133 -74v-2q45 -6 86 -24q40 -18 72 -50q31 -31 49 -71q18 -41 18 -96q0 -81 -33 -134q-34 -55 -92 -92q-57 -37 -135 -55q-77 -18 -166 -18q-107 0 -196 24q-91 25 -148 70z" />
<glyph unicode="&#x438;" horiz-adv-x="1230" d="M145 0v997h244l-2 -6v-463q0 -40 -4 -110l-4 -58h4l33 54q32 57 82 129l315 452h270v-997h-243v563q0 35 2 49l4 45h-4l-29 -43q-22 -36 -80 -120l-344 -492h-244z" />
<glyph unicode="&#x439;" horiz-adv-x="1230" d="M143 -6v997h244l-2 -6v-463q0 -40 -4 -110l-4 -58h4l33 54q32 57 82 129l315 452h270v-997h-243v563q0 35 2 49l4 45h-4l-29 -43q-29 -46 -80 -121l-344 -491h-244zM260 1393h223q3 -60 35 -97q29 -36 88 -36q57 0 86 36q31 39 37 99h221l-2 -6q-6 -80 -37 -140 q-30 -58 -77 -96q-45 -37 -105 -55q-62 -19 -123 -19t-123 19q-60 18 -104 57q-51 39 -80 98q-30 58 -39 140z" />
<glyph unicode="&#x43a;" horiz-adv-x="1095" d="M145 0v997h273l-4 -2v-403h63l291 403h293l-340 -448q54 -45 125 -160l57 -92q25 -39 45 -59q18 -21 35 -31q13 -8 35 -8h14v-199h-114q-46 0 -84 10q-35 12 -66 37q-32 26 -59 66q-33 44 -68 102l-55 92q-27 42 -45 60q-20 20 -41 34q-20 13 -41 13h-41v-412h-273z" />
<glyph unicode="&#x43b;" horiz-adv-x="1167" d="M37 184v2q74 9 115 84q40 72 55 234l49 495h766v-997h-272v784h-269l-26 -335q-8 -114 -39 -215q-29 -85 -78 -144q-48 -54 -115 -82q-67 -24 -149 -24z" />
<glyph unicode="&#x43c;" horiz-adv-x="1431" d="M70 0l145 997h264l4 -6l201 -626q2 -6 14 -54l11 -43l4 -16h4l4 16l10 43q3 12 17 54l16 51l194 575h265l141 -997h-277l-55 442l-6 58l-6 49l-4 45h-4q-3 -19 -13 -43l-14 -45q-6 -24 -16 -54l-140 -446h-260l-139 446l-16 50q-10 40 -11 47q-9 23 -12 49h-4l-4 -49 l-4 -47q0 -18 -4 -54l-62 -442h-243z" />
<glyph unicode="&#x43d;" horiz-adv-x="1218" d="M145 0v997h273v-374h383v374h272v-997h-272v403h-383v-403h-273z" />
<glyph unicode="&#x43e;" horiz-adv-x="1126" d="M53 498q0 88 29 190q27 95 90 170t156 121q96 47 227 47t229 -43q98 -48 160 -119q62 -74 92 -166q31 -95 31 -190q0 -90 -29 -191q-30 -95 -92 -172q-59 -73 -158 -122t-227 -46l-6 3q-136 0 -227 45q-97 48 -156 118q-63 76 -90 166q-29 98 -29 189zM344 510 q0 -70 12 -129t39 -102q24 -43 66 -68t98 -25l4 4q117 0 164 86t47 228q0 70 -12 129q-11 54 -41 102q-28 45 -70 68q-43 24 -100 24q-56 0 -98 -22q-39 -23 -64 -68q-27 -45 -35 -98q-10 -65 -10 -129z" />
<glyph unicode="&#x43f;" horiz-adv-x="1198" d="M145 0v997h908v-997h-273v780h-362v-780h-273z" />
<glyph unicode="&#x440;" horiz-adv-x="1159" d="M145 -449v1446h273v-104q41 54 104 90q62 39 170 39q187 0 295 -135q109 -136 109 -387q0 -125 -33 -215q-36 -98 -92 -166q-56 -65 -142 -107q-81 -37 -180 -37q-89 0 -147 25q-53 23 -84 47v-496h-273zM422 256q29 -22 67 -45q44 -23 105 -23q105 0 162 84 q55 82 55 232q0 142 -49 221q-49 82 -152 82q-39 0 -69 -12q-33 -13 -54 -31q-21 -13 -41 -33l-24 -29v-446z" />
<glyph unicode="&#x441;" horiz-adv-x="937" d="M55 494q0 125 43 223q40 98 111 166q70 67 166 102t209 35q117 0 196 -29q72 -26 109 -49l-88 -186q-43 26 -84 41q-49 18 -125 18q-119 0 -182 -84q-62 -86 -62 -225q0 -67 19 -129q14 -55 47 -103q30 -43 78 -65q48 -25 110 -25q84 0 139 25q54 25 74 39l84 -182l-4 -7 l-45 -28q-31 -17 -68 -31q-58 -17 -92 -23q-58 -10 -121 -10q-124 0 -215 39q-93 37 -159 109q-69 72 -103 166q-37 93 -37 213z" />
<glyph unicode="&#x442;" horiz-adv-x="923" d="M29 782v215h866v-215h-297v-782h-274v782h-295z" />
<glyph unicode="&#x443;" horiz-adv-x="1048" d="M-4 -459l39 215l31 -8q28 -4 67 -4q105 0 152 47q45 45 73 127l37 102l-375 977h291l226 -657h6l202 657h281l-412 -1103l2 2q-40 -102 -73 -160q-42 -72 -92 -117q-54 -48 -125 -72q-73 -24 -176 -24q-68 0 -101 8z" />
<glyph unicode="&#x444;" horiz-adv-x="1611" d="M63 489q0 111 29 213q28 93 84 168q58 70 131 109q74 39 172 39q68 0 117 -19q42 -16 74 -41v510h270v-510q29 23 74 43q49 19 116 19q98 0 173 -37q78 -38 129 -104q55 -67 86 -164q30 -95 30 -213q0 -115 -28 -213q-29 -95 -84 -166q-58 -70 -131 -109 q-74 -39 -172 -39q-68 0 -117 19q-47 18 -74 39v-482h-270v474q-28 -19 -72 -37q-49 -19 -117 -19q-97 0 -172 37t-131 105q-57 69 -86 165q-31 98 -31 213zM350 494q0 -142 47 -228t142 -86q55 0 90 21q36 22 59 45v495q-23 23 -59 45q-35 21 -90 21q-95 0 -142 -86 t-47 -227zM928 242q26 -26 59 -43q35 -21 90 -21q95 0 142 86t47 228q0 141 -47 227t-142 86q-54 0 -90 -19q-36 -22 -59 -45v-499z" />
<glyph unicode="&#x445;" horiz-adv-x="1046" d="M33 0l340 516l-328 481v2h307l88 -133l62 -94q28 -45 30 -47l160 272h281l-309 -469l352 -528h-307l-207 319l-189 -319h-280z" />
<glyph unicode="&#x446;" horiz-adv-x="1247" d="M145 0v997h273v-780h360v780h273v-784h114l-39 -512h-172l-24 299h-785z" />
<glyph unicode="&#x447;" horiz-adv-x="1148" d="M109 561v434h272v-377q0 -75 31 -114q29 -39 104 -39q40 0 74 18q32 13 63 37q30 24 47 43l29 31v403h275v-997h-275v391q-28 -32 -49 -53q-31 -28 -70 -51q-48 -25 -90 -35q-46 -14 -108 -14q-84 0 -142 24q-56 23 -92 68q-39 45 -53 104q-16 62 -16 127z" />
<glyph unicode="&#x448;" horiz-adv-x="1763" d="M145 0v997h273v-780h327v780h273v-780h325v780h275v-997h-1473z" />
<glyph unicode="&#x449;" horiz-adv-x="1814" d="M145 0v997h273v-780h327v780h273v-780h325v780h275v-784h115l-39 -512h-172l-25 299h-1352z" />
<glyph unicode="&#x44a;" horiz-adv-x="1148" d="M29 784v213h506v-323h155q85 0 166 -19q76 -18 131 -61q52 -41 88 -105q31 -64 31 -147q0 -176 -119 -258q-122 -84 -325 -84h-398v784h-235zM535 195h124v2q177 0 177 141q0 69 -41 104q-39 33 -127 33h-133v-280z" />
<glyph unicode="&#x44b;" horiz-adv-x="1583" d="M145 0v997h271v-323h153q89 0 168 -21q77 -18 133 -59q53 -42 88 -107q31 -64 31 -147q0 -173 -121 -256q-122 -84 -325 -84h-398zM416 195h125v2q176 0 176 141q0 69 -41 104q-42 33 -127 33h-133v-280zM1159 0v997h275v-997h-275z" />
<glyph unicode="&#x44c;" horiz-adv-x="1030" d="M145 0v997h271v-323h153q89 0 168 -21q77 -18 133 -59q53 -42 88 -107q31 -64 31 -147q0 -173 -121 -256q-122 -84 -325 -84h-398zM416 195h125v2q176 0 176 141q0 69 -41 104q-42 33 -127 33h-133v-280z" />
<glyph unicode="&#x44d;" horiz-adv-x="985" d="M39 76l113 192q48 -32 92 -47q52 -18 123 -18q108 0 178 55q71 56 80 148h-408v182h408q-12 92 -80 151q-69 60 -176 60q-71 0 -123 -21t-90 -45l-103 191q52 33 125 61q82 31 201 31q136 0 239 -41q104 -45 170 -113q65 -67 101 -164q33 -88 33 -194q0 -105 -35 -201 t-105 -166t-174 -110q-104 -43 -241 -43q-204 0 -328 92zM49 920l4 4z" />
<glyph unicode="&#x44e;" horiz-adv-x="1703" d="M145 0v997h273v-372h231q16 77 53 147q37 72 97 129q56 53 143 88q79 33 191 33q129 0 227 -43q98 -48 160 -119q62 -74 92 -166t30 -190q0 -93 -28 -191q-30 -95 -92 -172q-60 -75 -158 -123q-96 -47 -227 -47q-114 0 -201 35q-89 39 -145 98q-64 64 -97 140 q-35 78 -47 159h-229v-403h-273zM920 504q0 -70 12 -129q12 -60 39 -103q27 -44 69 -67q42 -25 99 -25l-9 -2q57 0 99 25q41 21 65 65q26 47 37 101q12 59 12 129t-12 129t-39 102q-28 45 -67 68q-43 24 -101 24t-98 -24q-39 -23 -61 -66q-27 -45 -35 -98q-10 -65 -10 -129z " />
<glyph unicode="&#x44f;" horiz-adv-x="1093" d="M59 0v199h15l-11 2q33 0 64 28q25 22 82 109q22 37 53 68q27 27 60 40v3q-36 6 -74 24q-39 19 -66 49q-31 31 -49 74q-18 44 -18 98q0 152 108 228q106 75 307 75h414v-997h-272v381h-49q-25 0 -41 -8q-18 -9 -37 -31q-26 -30 -41 -55l-53 -82q-11 -17 -23 -35t-24.5 -37 t-18.5 -27q-25 -37 -59 -61q-33 -26 -66 -35q-38 -10 -84 -10h-117zM383 682q0 -117 145 -117h138v238h-125q-82 0 -121 -31q-37 -30 -37 -90z" />
<glyph unicode="&#x451;" horiz-adv-x="1062" d="M59 502q0 124 39 215q39 98 105 164q65 65 157 104q87 37 195 37q212 0 324 -127q110 -128 110 -365v-45q0 -17 -4 -49h-631q9 -110 68 -184t184 -74q102 0 164 27q45 18 98 43l88 -176l-2 -6q-33 -20 -57 -31q-46 -20 -78 -31q-43 -15 -102 -24q-71 -11 -135 -11 q-131 0 -222 39q-97 37 -163 109q-70 73 -103 168q-35 100 -35 217zM174 1257q0 60 43 103t109 43q65 0 108 -43t43 -103q0 -61 -43 -104t-108 -43q-66 0 -109 43t-43 104zM348 614h373v2q0 38 -10 80q-8 35 -29 66q-19 28 -53 43q-37 16 -80 16q-89 0 -135 -55 q-51 -54 -66 -152zM604 1257q0 60 43 103t109 43q65 0 108 -43t43 -103q0 -61 -43 -104t-108 -43q-66 0 -109 43t-43 104z" />
<glyph unicode="&#x452;" horiz-adv-x="1148" d="M51 1157v203h88v119h273v-119h313v-203h-313v-268q44 44 104 72q62 30 139 30q89 0 166 -30q72 -28 131 -97q57 -66 86 -162q31 -102 31 -229t-25 -252q-23 -116 -71 -221q-44 -96 -113 -178q-68 -76 -153 -123l-115 162l-8 6q99 74 149 239q49 162 49 369q0 141 -47 221 q-50 80 -157 80q-52 0 -99 -24q-44 -23 -67 -52v-696h-273v1153h-88z" />
<glyph unicode="&#x453;" d="M145 0v997h656v-213h-383v-784h-273zM344 1108l170 276h352l-286 -276h-236z" />
<glyph unicode="&#x454;" horiz-adv-x="983" d="M59 489q0 103 35 199t105 166q69 69 172 113q104 43 243 43q97 0 181 -23q82 -22 139 -61l-113 -191q-42 27 -86 43q-52 19 -121 19q-107 0 -178 -56t-80 -147h400v-184h-402q15 -94 82 -152q68 -59 176 -59q78 0 136 24q53 23 92 51l104 -192l-2 -10q-50 -37 -127 -66 q-82 -31 -209 -31q-136 0 -239 41t-170 111q-69 72 -103 166q-35 93 -35 196z" />
<glyph unicode="&#x455;" horiz-adv-x="860" d="M49 70l92 190l39 -24q25 -15 58 -27q54 -19 73 -23q42 -10 78 -10q73 0 121 23q43 21 43 67q0 25 -18 43t-54 37q-8 3 -23 10t-29 13.5t-28 11.5q-26 10 -98 43q-104 49 -164 115q-59 65 -59 178q0 141 104 223q101 82 271 82q125 0 207 -29q74 -29 110 -51l-96 -186h-10 q-32 21 -84 41q-58 22 -127 22t-105 -22q-33 -23 -33 -66q0 -24 17 -41q14 -17 43 -33q31 -17 67 -28l80 -31q39 -16 111 -53q46 -25 86 -62q36 -33 57 -80t21 -110q0 -159 -105 -238q-106 -80 -291 -80q-139 0 -221 33q-81 28 -133 62z" />
<glyph unicode="&#x456;" horiz-adv-x="573" d="M121 1290q0 64 47 111t117 47q71 0 121 -47q49 -46 49 -111q0 -64 -47 -114q-50 -50 -121 -50h-2q-70 0 -117 50t-47 114zM147 0v997h275v-997h-275z" />
<glyph unicode="&#x457;" horiz-adv-x="573" d="M-78 1257q0 60 43 103t109 43q65 0 108 -43t43 -103q0 -61 -43 -104t-108 -43q-66 0 -109 43t-43 104zM150 0v997h274v-997h-274zM352 1257q0 60 43 103t109 43q65 0 108 -43t43 -103q0 -61 -43 -104t-108 -43q-66 0 -109 43t-43 104z" />
<glyph unicode="&#x458;" horiz-adv-x="563" d="M-102 -455l47 211q8 -3 28 -6q24 -4 50 -4q71 0 98 47q24 49 24 166v1038h275v-1073q0 -87 -19 -168q-18 -76 -59 -129q-44 -53 -109 -80q-67 -28 -157 -28q-81 0 -117 8q-43 9 -61 18zM117 1290q0 64 47 111t117 47q73 0 120 -47q48 -48 48 -111t-48 -114 q-47 -50 -120 -50q-70 0 -117 50t-47 114z" />
<glyph unicode="&#x459;" horiz-adv-x="1648" d="M37 184l2 2q74 9 115 84q40 72 55 234l49 495h778v-323h156q90 0 166 -21q74 -17 131 -59q57 -45 86 -107q31 -64 31 -147q0 -173 -121 -256q-122 -84 -326 -84h-397v784h-283l-26 -335q-8 -114 -39 -215q-29 -85 -78 -144q-45 -53 -113 -82q-67 -24 -149 -24zM1036 197 h125v2q176 0 176 141q0 69 -41 104q-39 33 -127 33h-133v-280z" />
<glyph unicode="&#x45a;" horiz-adv-x="1710" d="M145 0v997h275v-342h403v342h273v-342h157q89 0 166 -18q74 -17 131 -59q52 -38 88 -99q31 -64 31 -147q0 -175 -121 -252q-121 -80 -325 -80h-402v442h-403v-442h-273zM1096 195h127q89 0 135 30q43 30 43 105q0 71 -41 98q-47 29 -127 29h-137v-262z" />
<glyph unicode="&#x45b;" horiz-adv-x="1150" d="M53 1153v201h88v119h273v-119h313v-203h-313v-295q19 22 47 47q33 29 67 47q48 25 88 37q56 17 111 17q80 0 141 -25q58 -24 93 -68q34 -43 49 -102q16 -62 16 -129v-680h-272v625q0 73 -29 116q-30 37 -104 37q-37 0 -74 -16q-33 -14 -62 -37q-24 -19 -45 -43l-26 -31 v-651h-273v1153h-88z" />
<glyph unicode="&#x45c;" horiz-adv-x="1095" d="M145 0v997h273l-4 -2v-403h63l291 403h293l-340 -448q54 -45 125 -160l57 -92q25 -39 45 -59q18 -21 35 -31q13 -8 35 -8h14v-199h-114q-46 0 -84 10q-35 12 -66 37q-32 26 -59 66q-33 44 -68 102l-55 92q-27 42 -45 60q-20 20 -41 34q-20 13 -41 13h-41v-412h-273z M401 1108l170 276h353l-287 -276h-236z" />
<glyph unicode="&#x45e;" horiz-adv-x="1048" d="M-6 -465l39 215l30 -8q28 -4 68 -4q105 0 152 47q45 45 73 127l37 102l-375 977h291l226 -657h6l202 657h281l-412 -1104l2 2q-39 -99 -73 -159q-42 -72 -92 -117q-54 -48 -125 -72q-73 -24 -177 -24q-67 0 -100 8zM193 1393h223q3 -60 35 -97q29 -36 88 -36q57 0 86 36 q31 39 37 99h221l-2 -6q-6 -80 -37 -140q-29 -56 -78 -96q-46 -37 -104 -55q-62 -19 -123 -19t-123 19q-61 19 -105 57q-51 39 -80 98q-28 55 -38 140z" />
<glyph unicode="&#x45f;" horiz-adv-x="1202" d="M145 0v997h273v-780h366v780h273v-997h-355l-14 -299h-174l-16 299h-353z" />
<glyph unicode="&#x490;" horiz-adv-x="1005" d="M170 0v1364h575l23 303h182l39 -537h-530v-1130h-289z" />
<glyph unicode="&#x491;" d="M145 0v997h443l20 299h174l47 -512h-411v-784h-273z" />
<glyph unicode="&#x2000;" horiz-adv-x="881" />
<glyph unicode="&#x2001;" horiz-adv-x="1763" />
<glyph unicode="&#x2002;" horiz-adv-x="881" />
<glyph unicode="&#x2003;" horiz-adv-x="1763" />
<glyph unicode="&#x2004;" horiz-adv-x="587" />
<glyph unicode="&#x2005;" horiz-adv-x="440" />
<glyph unicode="&#x2006;" horiz-adv-x="293" />
<glyph unicode="&#x2007;" horiz-adv-x="293" />
<glyph unicode="&#x2008;" horiz-adv-x="220" />
<glyph unicode="&#x2009;" horiz-adv-x="352" />
<glyph unicode="&#x200a;" horiz-adv-x="97" />
<glyph unicode="&#x2010;" horiz-adv-x="675" d="M104 467v221h467v-221h-467z" />
<glyph unicode="&#x2011;" horiz-adv-x="675" d="M104 467v221h467v-221h-467z" />
<glyph unicode="&#x2012;" horiz-adv-x="675" d="M104 467v221h467v-221h-467z" />
<glyph unicode="&#x2013;" horiz-adv-x="1126" d="M98 444v211h930v-211h-930z" />
<glyph unicode="&#x2014;" horiz-adv-x="1781" d="M98 444v211h1585v-211h-1585z" />
<glyph unicode="&#x2018;" horiz-adv-x="460" d="M59 993q0 53 15 105q13 45 37 102q17 41 49 92q22 40 47 72h170v-6q-28 -36 -51 -86q-25 -55 -25 -105q0 -39 16 -61q10 -15 35 -45q22 -26 35 -49q16 -29 16 -74q0 -63 -47 -104t-110 -41q-75 0 -131 53t-56 147z" />
<glyph unicode="&#x2019;" horiz-adv-x="460" d="M57 1241q0 64 47 105q46 40 115 40q73 0 129 -53q55 -52 55 -147q0 -56 -14 -105q-13 -44 -37 -98q-19 -45 -49 -90q-28 -45 -49 -72h-164q31 44 49 84q25 55 25 107q0 37 -17 61q-15 24 -36 45q-22 22 -37 49q-17 31 -17 74zM86 821h4l-2 -4z" />
<glyph unicode="&#x201a;" horiz-adv-x="518" d="M86 162q0 62 47 106q47 41 115 41q73 0 129 -53q55 -52 55 -147q0 -56 -14 -105q-13 -45 -37 -102q-19 -45 -49 -90q-23 -35 -49 -68h-164q31 50 49 84q25 55 25 104q0 38 -17 62q-13 21 -37 45q-22 22 -37 49q-16 29 -16 74zM115 -256h4l-2 -2z" />
<glyph unicode="&#x201c;" horiz-adv-x="890" d="M49 993q0 56 14 105q13 45 37 102q15 36 50 92q28 45 49 72h168v-6q-30 -43 -52 -86q-24 -52 -24 -105q0 -39 16 -61q13 -21 37 -45q22 -22 37 -49q16 -29 16 -74q0 -63 -47 -104t-114 -41q-73 0 -132 53q-55 52 -55 147zM487 987q0 51 15 107q14 49 37 100q19 45 49 90 q28 45 49 72h168v-6q-27 -39 -51 -88q-25 -55 -25 -103q0 -37 16 -63q13 -21 37 -45q20 -20 37 -47q17 -31 17 -72q0 -63 -48 -105q-47 -41 -110 -41q-76 0 -135 56q-56 53 -56 145z" />
<glyph unicode="&#x201d;" horiz-adv-x="890" d="M57 1241q0 64 47 105q46 40 115 40q73 0 129 -53q55 -52 55 -147q0 -56 -14 -105q-13 -44 -37 -98q-19 -45 -49 -90q-28 -45 -49 -72h-164q31 44 49 84q25 55 25 107q0 37 -17 61q-15 24 -36 45q-22 22 -37 49q-17 31 -17 74zM86 821h4l-2 -4zM494 1241q0 64 47 105 q46 40 114 40q73 0 131 -55q56 -53 56 -145q0 -52 -15 -105q-13 -46 -36 -100q-9 -22 -48 -92q-18 -32 -47 -74h-170l-2 8q26 37 51 86q25 55 25 105q0 37 -16 63q-13 21 -37 45q-20 20 -37 47q-16 29 -16 72z" />
<glyph unicode="&#x201e;" horiz-adv-x="901" d="M57 162q0 62 47 106q47 41 115 41q73 0 129 -53q55 -52 55 -147q0 -56 -14 -105q-13 -45 -37 -102q-19 -45 -49 -90q-23 -35 -49 -68h-164q31 50 49 84q25 55 25 104q0 38 -17 62q-15 24 -36 45q-22 22 -37 49q-17 31 -17 74zM86 -256h4l-2 -2zM494 166q0 63 47 104 t114 41q72 0 131 -53q56 -53 56 -147q0 -53 -15 -105t-36 -102q-9 -22 -48 -92q-19 -32 -47 -68h-170l-2 4q27 39 51 88q25 55 25 103q0 37 -16 63q-13 21 -37 45q-20 20 -37 47q-16 29 -16 72z" />
<glyph unicode="&#x2020;" horiz-adv-x="1142" d="M82 760v237h225l148 -18l-31 215v281h295v-281l-29 -215l146 18h225v-237h-225l-146 18l37 -258l-68 -868h-176l-69 868l41 258l-148 -18h-225z" />
<glyph unicode="&#x2021;" horiz-adv-x="1165" d="M82 92v240h225l148 -21l-39 234l39 233l-148 -18h-225v237h225l148 -18l-31 215v281h295v-281l-29 -215l146 18h225v-237h-225l-146 18l35 -233l-35 -234l146 21h225v-240h-225l-146 19l29 -215v-242h-295v242l31 215l-148 -19h-225z" />
<glyph unicode="&#x2022;" horiz-adv-x="897" d="M84 584q0 70 29 143q27 65 77 115t117 80q70 28 142 28q74 0 141 -28q64 -27 115 -78q50 -50 77 -115q29 -69 29 -141q0 -70 -29 -139q-27 -65 -77 -115q-51 -51 -115 -78q-67 -28 -141 -31l-3 -2q-70 0 -139 29q-65 26 -117 78q-50 50 -77 114q-29 69 -29 140z" />
<glyph unicode="&#x2026;" horiz-adv-x="1554" d="M115 162q0 39 14 67q18 35 39 54q25 25 57 39q34 12 70 12q35 0 70 -12q31 -11 57 -37q22 -22 39 -56q14 -28 14 -67q0 -72 -53 -125q-51 -51 -127 -51t-127 51q-53 53 -53 125zM293 -14h2h2h-4zM598 160q0 71 53 121q52 49 127 49q77 0 129 -49q51 -48 51 -123 q0 -74 -51 -125t-129 -51v4q-75 0 -127 49q-53 53 -53 125zM1085 156q0 37 15 67q17 34 39 56q25 25 57 36q37 13 70 13q34 0 69 -15q32 -11 58 -34q22 -22 39 -56q14 -28 14 -67q0 -72 -53 -125q-51 -51 -129 -54l2 5q-75 0 -127 49q-54 54 -54 125z" />
<glyph unicode="&#x202f;" horiz-adv-x="352" />
<glyph unicode="&#x2030;" horiz-adv-x="2549" d="M45 700q0 57 23 121q22 61 67 103q44 44 109 71q69 29 153 29q89 0 154 -27q65 -24 108 -67q46 -46 66 -101q23 -61 23 -118t-23 -121q-20 -56 -66 -105q-43 -46 -108 -73q-69 -29 -154 -29l-2 -2q-89 0 -153 27q-65 27 -109 71t-65 103q-23 64 -23 118zM279 707 q0 -60 28 -111q27 -49 92 -49v-2q70 0 93 45q24 46 24 106q0 62 -27 111q-27 47 -92 47t-92 -43q-26 -42 -26 -104zM477 -2l600 999h226l-598 -999h-228zM1026 285q0 57 23 121q21 58 65 102q45 45 109 72q67 28 153 28q90 0 152 -26q64 -24 108 -68q47 -47 66 -98 q22 -61 22 -121t-22 -121q-20 -56 -66 -102q-44 -47 -108 -74q-69 -29 -152 -29v-2q-86 0 -153 25t-109 67q-44 44 -65 103q-23 64 -23 123zM1260 291q0 -58 28 -109q27 -49 92 -49l2 -4q71 0 91 45q24 46 24 107t-27 110q-27 47 -92 47t-92 -43q-26 -42 -26 -104zM1794 287 q0 57 23 121q21 59 67 102q45 45 109 72q67 28 153 28q90 0 152 -26q62 -23 110 -68q47 -47 66 -98q23 -64 23 -121t-23 -121q-20 -56 -66 -102q-44 -47 -108 -74q-72 -29 -154 -29l-2 -2q-86 0 -153 25t-109 67q-44 44 -65 103q-23 64 -23 123zM2030 287q0 -58 28 -109 q27 -49 92 -49l2 -4q70 0 93 45q24 46 24 106q0 63 -26 111q-27 47 -93 47q-65 0 -92 -43q-28 -45 -28 -104z" />
<glyph unicode="&#x2039;" horiz-adv-x="655" d="M66 502l245 395h287l-244 -395l244 -393h-287z" />
<glyph unicode="&#x203a;" horiz-adv-x="655" d="M57 109l246 395l-246 393h287l246 -393l-246 -395h-287z" />
<glyph unicode="&#x205f;" horiz-adv-x="440" />
<glyph unicode="&#x20ac;" horiz-adv-x="1202" d="M70 430v188h120q-2 10 -2 31v84h-118v189h145v2q24 107 76 192q51 87 123 148q70 58 172 94q95 33 217 33q60 0 125 -7q54 -6 98 -18q31 -9 78 -29q29 -12 61 -34l-114 -213q-37 23 -88 43q-58 22 -152 22q-114 0 -184 -61q-75 -62 -109 -170h326v-189h-357v-80 q0 -25 2 -37h355v-188h-320q37 -104 111 -160q73 -55 178 -55q91 0 154 29q50 23 98 55l113 -205q-18 -13 -60 -39q-39 -24 -80 -37q-48 -18 -104 -30q-67 -13 -137 -13q-103 0 -195 27q-93 27 -168 82q-78 57 -133 141q-58 89 -84 205h-147z" />
<glyph unicode="&#x2122;" horiz-adv-x="1513" d="M68 1225v139h524v-139h-176v-467h-170v467h-178zM637 758l82 606h170l2 -2l108 -297q19 -55 25 -82l10 -41h4l13 41q7 30 24 82l107 297h174l80 -606h-174l-27 264q-4 50 -4 70l-2 36h-4l-8 -39q-4 -17 -25 -86l-90 -245h-150l-82 243q-16 45 -24 86q-9 40 -12 43h-5 l-2 -32l-6 -76l-28 -262h-156z" />
<glyph unicode="&#x25fc;" horiz-adv-x="1003" d="M0 0v1004h1004v-1004h-1004z" />
</font>
</defs>
</svg>
